<svg width="30" height="29" viewBox="0 0 30 29" fill="none" xmlns="http://www.w3.org/2000/svg">
<path d="M1.81885 21.4577L8.24818 17.8294C7.71684 16.8309 7.41476 15.6982 7.41476 14.497C7.41476 10.6114 10.56 7.43125 14.4924 7.25857V0C11.8924 0.0474545 9.69588 0.651512 7.41341 1.9397C0.428133 5.88173 -2.03706 14.5778 1.81885 21.4577Z" transform="translate(0.337128)" fill="#8A0"/>
<path d="M14.8285 21.7438C12.21 21.7438 9.90591 20.4084 8.58667 18.3999L2.15498 22.0291C3.49715 24.2065 5.13061 25.7642 7.41307 27.0521C9.66789 28.3245 12.2275 28.9971 14.8157 28.9971C19.9933 28.9971 24.8232 26.3353 27.5035 22.0285L21.0711 18.3989C19.7519 20.4084 17.4475 21.7438 14.8285 21.7438Z" transform="translate(0.337128)" fill="#8A0"/>
<path d="M15.1667 0.000643753V7.25855C19.0981 7.43222 22.2423 10.612 22.2423 14.497C22.2423 15.6979 21.9403 16.8302 21.4089 17.8284L27.8416 21.4583C29.0995 19.2339 29.6629 17.0721 29.6629 14.496C29.6629 6.61166 23.1907 0.176621 15.1667 0.000643753Z" transform="translate(0.337128)" fill="#8A0"/>
</svg>
