<svg width="30" height="29" viewBox="0 0 30 29" fill="none" xmlns="http://www.w3.org/2000/svg">
<path d="M7.42492 14.1668C7.59686 10.4324 10.673 7.42565 14.4935 7.25758V0C6.58138 0.17367 0.177675 6.43306 0 14.1668H7.42492Z" transform="translate(0.337128)" fill="#8A0"/>
<path d="M14.4935 28.9928V21.7352C10.673 21.5671 7.59686 18.5603 7.42492 14.8259H0C0.177675 22.5597 6.58138 28.8191 14.4935 28.9928Z" transform="translate(0.337128)" fill="#8A0"/>
<path d="M22.2363 14.8259C22.0644 18.5603 18.9883 21.5671 15.1678 21.7352V28.9928C23.0799 28.8191 29.4836 22.5597 29.6612 14.8259H22.2363Z" transform="translate(0.337128)" fill="#8A0"/>
<path d="M15.1678 0V7.25758C18.9883 7.42565 22.0644 10.4324 22.2363 14.1668H29.6612C29.4836 6.43306 23.0799 0.17367 15.1678 0Z" transform="translate(0.337128)" fill="#8A0"/>
</svg>
