<svg width="57" height="37" viewBox="0 0 57 37" fill="none" xmlns="http://www.w3.org/2000/svg">
<rect width="56.48" height="36.6" rx="2" fill="#000301"/>
<path d="M6.24121 10H4.91992L5.52148 6.5249H2.1377L1.53613 10H0.209473L1.56836 2.17969H2.89502L2.32568 5.43457H5.70947L6.27344 2.17969H7.6001L6.24121 10ZM9.07715 10H7.8042L8.81396 4.18848H10.0869L9.07715 10ZM8.99658 2.70068C8.99658 2.50374 9.06104 2.33545 9.18994 2.1958C9.31885 2.05615 9.49251 1.98275 9.71094 1.97559C9.91862 1.96842 10.0905 2.03288 10.2266 2.16895C10.3662 2.30143 10.436 2.46436 10.436 2.65771C10.436 2.86182 10.368 3.03011 10.2319 3.1626C10.0994 3.29508 9.92936 3.36491 9.72168 3.37207C9.51758 3.37923 9.3457 3.31836 9.20605 3.18945C9.06641 3.05697 8.99658 2.89404 8.99658 2.70068ZM15.9468 7.11572C15.8752 7.6958 15.7194 8.22217 15.4795 8.69482C15.2432 9.16748 14.9406 9.52555 14.5718 9.76904C14.2065 10.009 13.7965 10.1235 13.3418 10.1128C12.7367 10.0985 12.2604 9.88363 11.9131 9.46826L11.3921 12.2344H10.1138L11.5103 4.18848L12.6758 4.18311L12.5791 4.78467C13.0231 4.30127 13.5513 4.06673 14.1636 4.08105C14.5324 4.08464 14.8529 4.17952 15.125 4.36572C15.3971 4.54834 15.6048 4.8151 15.748 5.16602C15.8949 5.51693 15.9736 5.90723 15.9844 6.33691C15.988 6.55534 15.9754 6.81494 15.9468 7.11572ZM14.6899 7.00293L14.7168 6.61084C14.7275 6.14893 14.6506 5.79085 14.4858 5.53662C14.3247 5.28239 14.0812 5.15169 13.7554 5.14453C13.2756 5.13021 12.8602 5.35042 12.5093 5.80518L12.0581 8.39941C12.2192 8.83268 12.5469 9.05648 13.041 9.0708C13.4635 9.08154 13.818 8.91683 14.1045 8.57666C14.3945 8.23649 14.5897 7.71191 14.6899 7.00293ZM19.1963 10.1074C18.6914 10.0967 18.2528 9.96956 17.8804 9.72607C17.5116 9.48258 17.2376 9.14958 17.0586 8.72705C16.8831 8.30452 16.8169 7.83366 16.8599 7.31445L16.876 7.09424C16.9404 6.50342 17.1123 5.97347 17.3916 5.50439C17.6745 5.03174 18.0254 4.67367 18.4443 4.43018C18.8633 4.18669 19.318 4.07031 19.8086 4.08105C20.5355 4.09538 21.0798 4.36572 21.4414 4.89209C21.8066 5.41846 21.9445 6.10417 21.855 6.94922L21.7798 7.50781H18.1221C18.0898 7.96973 18.1829 8.34212 18.4014 8.625C18.6198 8.90788 18.9206 9.0529 19.3037 9.06006C19.8516 9.07796 20.3564 8.83984 20.8184 8.3457L21.4629 9.02246C21.2194 9.36979 20.8989 9.64014 20.5015 9.8335C20.104 10.0233 19.6689 10.1146 19.1963 10.1074ZM19.7388 5.12305C19.0656 5.10156 18.5607 5.5778 18.2241 6.55176L20.6357 6.55713L20.6572 6.44434C20.6823 6.27962 20.6841 6.11849 20.6626 5.96094C20.6232 5.70671 20.5229 5.50618 20.3618 5.35938C20.2007 5.21257 19.993 5.13379 19.7388 5.12305ZM26.1465 5.38086C25.9818 5.34505 25.8153 5.32715 25.647 5.32715C25.0884 5.31283 24.6444 5.54378 24.3149 6.02002L23.6167 10H22.3438L23.3481 4.18848L24.5566 4.18311L24.4277 4.84375C24.8252 4.31738 25.2835 4.05957 25.8027 4.07031C25.9209 4.07031 26.0838 4.09717 26.2915 4.15088L26.1465 5.38086ZM28.5742 9.0708C28.8786 9.07796 29.1471 8.99023 29.3799 8.80762C29.6162 8.62142 29.7666 8.37972 29.8311 8.08252L31.0342 8.07715C30.9948 8.46029 30.8551 8.80941 30.6152 9.12451C30.3789 9.43962 30.0745 9.6849 29.7021 9.86035C29.3298 10.0358 28.9412 10.1182 28.5366 10.1074C28.0389 10.1003 27.6146 9.97135 27.2637 9.7207C26.9128 9.47005 26.6567 9.12451 26.4956 8.68408C26.3345 8.24007 26.2808 7.74593 26.3345 7.20166L26.3506 7.01367C26.4115 6.4515 26.5744 5.94303 26.8394 5.48828C27.1079 5.02995 27.4535 4.67725 27.876 4.43018C28.2985 4.18311 28.7676 4.06673 29.2832 4.08105C29.9134 4.09538 30.4165 4.30485 30.7925 4.70947C31.1685 5.11051 31.3564 5.6333 31.3564 6.27783H30.1641C30.1641 5.94482 30.0817 5.67269 29.917 5.46143C29.7559 5.25016 29.5213 5.13737 29.2134 5.12305C28.7157 5.10872 28.3236 5.31999 28.0371 5.75684C27.7507 6.19368 27.5967 6.80957 27.5752 7.60449C27.5501 8.56771 27.8831 9.05648 28.5742 9.0708ZM35.1323 10C35.0894 9.85677 35.0715 9.67594 35.0786 9.45752C34.5988 9.90511 34.0814 10.1217 33.5264 10.1074C33.0215 10.1003 32.6025 9.93913 32.2695 9.62402C31.9401 9.30534 31.7861 8.90251 31.8076 8.41553C31.8363 7.80322 32.1012 7.32161 32.6025 6.9707C33.1038 6.61979 33.777 6.44434 34.6221 6.44434L35.4492 6.45508L35.5244 6.05762C35.5459 5.91797 35.5459 5.78727 35.5244 5.66553C35.4528 5.27881 35.1968 5.08008 34.7563 5.06934C34.4842 5.06217 34.2443 5.132 34.0366 5.27881C33.8325 5.42204 33.7072 5.6154 33.6606 5.85889L32.3877 5.86963C32.4128 5.51156 32.5399 5.19824 32.769 4.92969C32.9982 4.65755 33.3026 4.44629 33.6821 4.2959C34.0617 4.14551 34.4627 4.07389 34.8853 4.08105C35.519 4.09538 36.0132 4.28695 36.3677 4.65576C36.7222 5.021 36.869 5.49544 36.8081 6.0791L36.3623 8.80225L36.3193 9.28564C36.3086 9.49691 36.3354 9.7028 36.3999 9.90332L36.3945 10H35.1323ZM33.8218 9.06543C34.0903 9.07259 34.3392 9.01172 34.5684 8.88281C34.7975 8.75033 34.9927 8.58024 35.1538 8.37256L35.3525 7.27148L34.7456 7.26611C34.2658 7.26611 33.8826 7.35742 33.5962 7.54004C33.3097 7.71908 33.1468 7.96615 33.1074 8.28125C33.0788 8.52116 33.1307 8.71094 33.2632 8.85059C33.3993 8.98665 33.5854 9.05827 33.8218 9.06543ZM41.3145 5.38086C41.1497 5.34505 40.9832 5.32715 40.8149 5.32715C40.2563 5.31283 39.8123 5.54378 39.4829 6.02002L38.7847 10H37.5117L38.5161 4.18848L39.7246 4.18311L39.5957 4.84375C39.9932 4.31738 40.4515 4.05957 40.9707 4.07031C41.0889 4.07031 41.2518 4.09717 41.4595 4.15088L41.3145 5.38086ZM41.4863 7.08887C41.5579 6.49089 41.7191 5.95378 41.9697 5.47754C42.2204 5.0013 42.5301 4.64681 42.8989 4.41406C43.2677 4.17773 43.6777 4.06494 44.1289 4.07568C44.7197 4.09001 45.1816 4.31022 45.5146 4.73633L46.0732 1.75H47.3516L45.9175 10H44.7788L44.8647 9.39844C44.4136 9.889 43.8836 10.1271 43.2749 10.1128C42.7342 10.1056 42.3009 9.89795 41.9751 9.48975C41.6528 9.07796 41.4792 8.5319 41.4541 7.85156C41.4434 7.62956 41.4487 7.41292 41.4702 7.20166L41.4863 7.08887ZM42.7217 7.58838C42.6966 8.03239 42.7646 8.38509 42.9258 8.64648C43.0905 8.90788 43.334 9.04215 43.6562 9.04932C44.1468 9.06364 44.5711 8.82552 44.9292 8.33496L45.3643 5.8374C45.196 5.38981 44.8701 5.15885 44.3867 5.14453C43.8997 5.13021 43.5076 5.34505 43.2104 5.78906C42.9132 6.23307 42.7503 6.83285 42.7217 7.58838Z" transform="translate(4 11)" fill="#0F1620"/>
</svg>
