<svg width="57" height="37" viewBox="0 0 57 37" fill="none" xmlns="http://www.w3.org/2000/svg">
<path d="M2.867 2.74658e-07C1.809 2.74658e-07 0.998 0.34 0.998 0.34L0.774 1.67C0.774 1.67 1.443 1.398 2.456 1.398C3.031 1.398 3.451 1.462 3.451 1.929C3.451 2.213 3.4 2.318 3.4 2.318C3.4 2.318 2.947 2.281 2.737 2.281C1.402 2.281 1.52588e-08 2.849 1.52588e-08 4.568C1.52588e-08 5.922 0.919 6.231 1.49 6.231C2.579 6.231 3.049 5.525 3.073 5.523L3.022 6.113H4.381L4.987 1.863C4.986 0.0579993 3.413 2.74658e-07 2.867 2.74658e-07ZM2.105 4.938C1.626 4.938 1.501 4.573 1.501 4.355C1.501 3.933 1.73 3.425 2.861 3.425C3.125 3.426 3.153 3.453 3.197 3.461C3.227 3.721 3.035 4.938 2.105 4.938Z" transform="translate(12.184 15.873)" fill="#000301"/>
<path d="M3.076 1.414C3.293 1.414 4.13 1.483 4.13 1.483L4.325 0.121C4.325 0.121 3.783 -4.57764e-08 2.901 -4.57764e-08C1.759 -4.57764e-08 0.600999 0.455999 0.600999 2.015C0.600999 3.783 2.533 3.603 2.533 4.349C2.533 4.845 1.993 4.886 1.577 4.886C0.855999 4.886 0.208001 4.64 0.206001 4.65L-5.79834e-07 6.001C0.0369994 6.011 0.437 6.189 1.732 6.189C2.079 6.189 4.066 6.279 4.066 4.228C4.066 2.31 2.227 2.689 2.227 1.918C2.227 1.534 2.526 1.414 3.076 1.414Z" transform="translate(16.883 15.8838)" fill="#000301"/>
<path d="M2.053 2.352H2.87L3.067 0.9H2.297L2.454 1.52588e-08H0.910999C0.876999 0.033 -1.2207e-07 5.076 -1.2207e-07 5.688C-1.2207e-07 6.599 0.510999 7.003 1.23 6.996C1.793 6.992 2.232 6.836 2.387 6.793L2.58 5.481C2.474 5.481 2.319 5.527 2.182 5.527C1.645 5.527 1.586 5.24 1.62 5.029L2.053 2.352Z" transform="translate(21.153 15.1201)" fill="#000301"/>
<path d="M3.787 -4.88281e-07H1.033C0.663001 0.5 0.315 1.032 -3.20435e-07 1.552H4.913C4.572 1.01 4.195 0.492 3.787 -4.88281e-07Z" transform="translate(25.886 9.04785)" fill="#000301"/>
<path d="M0.361999 0.406C0.331999 0.361 0.306999 0.327001 0.286999 0.306001C0.275999 0.296001 0.261999 0.285 0.243999 0.28C0.286999 0.277 0.322999 0.260999 0.348999 0.233999C0.373999 0.206999 0.388 0.174998 0.388 0.137998C0.388 0.111998 0.380001 0.0870006 0.365001 0.0640006C0.350001 0.0410006 0.327998 0.0240009 0.300998 0.0150009C0.275998 0.00500085 0.233 1.46484e-06 0.174 1.46484e-06H-2.13623e-07V0.504999H0.0820005V0.291002H0.129001C0.157001 0.291002 0.180001 0.297 0.193001 0.309C0.214001 0.326 0.243999 0.365 0.278999 0.426L0.323002 0.505998H0.424L0.361999 0.406ZM0.18 0.224H0.0800016V0.0720001H0.174C0.213 0.0720001 0.239001 0.0749989 0.254001 0.0809989C0.270001 0.0869989 0.280001 0.0959999 0.289001 0.107C0.297001 0.119 0.300998 0.132001 0.300998 0.146001C0.300998 0.169001 0.293001 0.189001 0.276001 0.203001C0.259001 0.216001 0.226 0.224 0.18 0.224Z" transform="translate(50.799 26.1001)" fill="#000301"/>
<path d="M7.388 2.74658e-07H0.781C0.359 0.799 0.0790003 1.403 2.89917e-07 1.553H8.014C7.833 1.019 7.625 0.502 7.388 2.74658e-07Z" transform="translate(24.246 12.123)" fill="#000301"/>
<path d="M5.086 1.83105e-07L3.565 4.51L3.486 1.83105e-07H1.234L-2.21252e-07 7.349H1.489L2.428 1.809L2.566 7.349H3.629L5.612 1.809L4.733 7.349H6.313L7.53 1.83105e-07H5.086Z" transform="translate(5.207 14.644)" fill="#000301"/>
<path d="M2.869 2.74658e-07C1.809 2.74658e-07 0.999001 0.34 0.999001 0.34L0.773999 1.67C0.773999 1.67 1.444 1.398 2.456 1.398C3.031 1.398 3.452 1.462 3.452 1.929C3.452 2.213 3.399 2.318 3.399 2.318C3.399 2.318 2.947 2.281 2.735 2.281C1.401 2.281 7.62939e-07 2.849 7.62939e-07 4.568C7.62939e-07 5.922 0.919999 6.231 1.49 6.231C2.578 6.231 3.048 5.525 3.073 5.523L3.022 6.113H4.38L4.986 1.863C4.989 0.0579993 3.415 2.74658e-07 2.869 2.74658e-07ZM2.109 4.938C1.629 4.938 1.505 4.573 1.505 4.355C1.505 3.933 1.734 3.425 2.865 3.425C3.128 3.426 3.156 3.453 3.201 3.461C3.23 3.721 3.037 4.938 2.109 4.938Z" transform="translate(37.2 15.873)" fill="#000301"/>
<path d="M0.873999 0.234999C0.832999 0.158999 0.773 0.100999 0.698 0.0609994C0.624 0.0199994 0.548001 4.57764e-07 0.468001 4.57764e-07C0.391001 0.00100046 0.314001 0.0209994 0.238001 0.0609994C0.163001 0.100999 0.104998 0.158999 0.0629983 0.234999C0.0209983 0.309999 -1.46484e-06 0.388 -1.46484e-06 0.469C-1.46484e-06 0.55 0.0209983 0.627001 0.0629983 0.701001C0.103998 0.775001 0.161999 0.834 0.235999 0.876C0.310999 0.917 0.388001 0.938 0.468001 0.938C0.550001 0.938 0.627999 0.917 0.700999 0.876C0.774999 0.834 0.832999 0.775001 0.873999 0.701001C0.916999 0.627001 0.935999 0.55 0.935999 0.469C0.935999 0.386 0.915999 0.307999 0.873999 0.234999ZM0.809 0.661999C0.775 0.723999 0.727 0.770999 0.664 0.807999C0.602 0.841999 0.537999 0.859999 0.470999 0.859999C0.402999 0.859999 0.337999 0.841999 0.276999 0.807999C0.213999 0.772999 0.166999 0.724999 0.130999 0.661999C0.0949991 0.598999 0.0790009 0.535001 0.0790009 0.468001C0.0790009 0.401001 0.0960018 0.335999 0.133002 0.272999C0.168002 0.210999 0.215002 0.163001 0.279002 0.128001C0.343002 0.0930007 0.405999 0.0779996 0.470999 0.0779996C0.535999 0.0779996 0.600002 0.0940007 0.661002 0.128001C0.725002 0.163001 0.772002 0.209999 0.807002 0.272999C0.842002 0.335999 0.860999 0.401001 0.860999 0.468001C0.860999 0.535001 0.844 0.599999 0.809 0.661999Z" transform="translate(50.336 21.0811)" fill="#000301"/>
<path d="M0.363001 0.406001C0.334001 0.359001 0.308 0.326 0.289 0.306C0.277 0.295 0.264001 0.285999 0.246001 0.279999C0.289001 0.276999 0.324001 0.261 0.350001 0.234C0.375001 0.208 0.390002 0.173999 0.390002 0.137999C0.390002 0.112999 0.382 0.0869998 0.366 0.0639998C0.35 0.0419998 0.328999 0.025 0.303999 0.015C0.278999 0.00499997 0.235001 5.79834e-07 0.176001 5.79834e-07H-1.52588e-06V0.504H0.0819992V0.29H0.129C0.158 0.29 0.180998 0.296 0.194998 0.307C0.215998 0.325 0.244001 0.362999 0.281001 0.425999L0.324 0.505H0.425002L0.363001 0.406001ZM0.183001 0.220999H0.0839981V0.0679995H0.176001C0.216001 0.0679995 0.242002 0.0710008 0.258002 0.0760008C0.271002 0.0830008 0.282999 0.0899993 0.290999 0.102999C0.299999 0.115999 0.303999 0.127 0.303999 0.144C0.303999 0.166 0.295001 0.185 0.280001 0.199C0.261001 0.216 0.230001 0.220999 0.183001 0.220999Z" transform="translate(50.6 21.3032)" fill="#000301"/>
<path d="M3.467 2.28882e-07C2.776 2.28882e-07 2.263 0.942999 2.263 0.942999L2.401 0.0760004H0.962998L6.71387e-07 6.058H1.584C2.035 3.502 2.117 1.429 3.188 1.808C3.377 0.820001 3.559 0.437001 3.764 0.0200007C3.764 0.0210007 3.668 2.28882e-07 3.467 2.28882e-07Z" transform="translate(41.846 15.9458)" fill="#000301"/>
<path d="M4.416 0.0029996L4.083 2.068C4.083 2.068 3.503 1.265 2.593 1.265C1.178 1.266 -1.09863e-06 2.971 -1.09863e-06 4.929C-1.09863e-06 6.194 0.629001 7.433 1.913 7.433C2.838 7.433 3.35 6.788 3.35 6.788L3.283 7.339H4.784L5.964 -6.56128e-07L4.416 0.0029996ZM2.459 5.933C1.903 5.933 1.643 5.467 1.643 4.735C1.643 3.538 2.18 2.749 2.859 2.749C3.413 2.75 3.698 3.131 3.698 4.029C3.698 4.844 3.295 5.933 2.459 5.933Z" transform="translate(44.877 14.6489)" fill="#000301"/>
<path d="M55.026 1.297e-07H1.454C0.65 1.297e-07 0 0.651 0 1.454V35.149C0 35.952 0.65 36.603 1.454 36.603H55.026C55.83 36.603 56.48 35.952 56.48 35.149V1.454C56.48 0.651 55.83 1.297e-07 55.026 1.297e-07ZM51.409 26.579C51.367 26.655 51.31 26.713 51.236 26.754C51.162 26.795 51.084 26.816 51.004 26.816C50.922 26.816 50.844 26.795 50.77 26.754C50.697 26.713 50.639 26.655 50.596 26.579C50.555 26.506 50.534 26.428 50.534 26.347C50.534 26.266 50.555 26.189 50.597 26.113C50.638 26.037 50.698 25.98 50.772 25.939C50.847 25.9 50.923 25.879 51.003 25.879C51.082 25.879 51.158 25.9 51.232 25.939C51.307 25.98 51.366 26.037 51.407 26.113C51.449 26.189 51.469 26.267 51.469 26.347C51.469 26.427 51.451 26.508 51.409 26.579ZM52.457 18.302C52.459 26.307 45.973 32.799 37.967 32.801C34.223 32.802 30.809 31.383 28.237 29.052C25.665 31.379 22.258 32.797 18.52 32.797C10.519 32.797 4.025 26.304 4.025 18.302C4.025 10.332 10.468 3.858 18.427 3.806C18.458 3.806 18.489 3.806 18.52 3.806C22.258 3.806 25.666 5.224 28.238 7.551C30.809 5.223 34.219 3.804 37.96 3.803C45.966 3.8 52.457 10.289 52.459 18.295C52.457 18.297 52.457 18.298 52.457 18.302Z" fill="#000301"/>
<path d="M2.59399e-07 -1.77002e-06C0.459 0.561998 0.945001 1.098 1.482 1.584C1.494 1.573 1.507 1.563 1.519 1.553C1.519 1.553 1.518 1.553 1.518 1.552H1.521C2.049 1.071 2.542 0.552998 2.993 -1.77002e-06H2.59399e-07Z" transform="translate(26.753 27.4668)" fill="#000301"/>
<path d="M4.698 3.664C4.698 3.664 4.901 2.664 4.901 2.257C4.901 1.24 4.395 -7.01904e-07 2.701 -7.01904e-07C1.149 0.000999298 -6.71387e-07 1.673 -6.71387e-07 3.563C-6.71387e-07 5.744 1.439 6.262 2.666 6.262C3.798 6.262 4.296 6.008 4.296 6.008L4.568 4.52C4.568 4.52 3.707 4.9 2.929 4.9C1.272 4.9 1.562 3.664 1.562 3.664H4.698ZM2.706 1.385C3.577 1.385 3.416 2.364 3.416 2.442H1.703C1.703 2.341 1.865 1.385 2.706 1.385Z" transform="translate(24.029 15.8472)" fill="#000301"/>
<path d="M3.584 1.572C4.369 1.572 5 2.013 5 2.013L5.252 0.378001C5.252 0.378001 4.318 6.2561e-07 3.514 6.2561e-07C1.733 6.2561e-07 5.18799e-07 1.546 5.18799e-07 4.449C5.18799e-07 6.374 0.935001 7.645 2.777 7.645C3.297 7.645 4.127 7.434 4.127 7.434L4.403 5.75C4.403 5.75 3.647 6.129 3.127 6.129C2.031 6.128 1.592 5.292 1.592 4.396C1.592 2.573 2.534 1.572 3.584 1.572Z" transform="translate(32.381 14.48)" fill="#000301"/>
<path d="M7.93457e-07 6.10352e-08C0.251001 0.539 0.543 1.052 0.856 1.552H5.999C6.311 1.054 6.592 0.536 6.843 6.10352e-08H7.93457e-07Z" transform="translate(24.818 24.4219)" fill="#000301"/>
<path d="M3.464 0.00013972C2.773 0.00013972 2.261 0.943141 2.261 0.943141L2.4 0.0761399H0.962999L-6.10352e-08 6.05814H1.584C2.033 3.50314 2.117 1.42914 3.188 1.80814C3.376 0.81914 3.557 0.436141 3.762 0.0181413C3.762 0.0181413 3.666 -0.00186028 3.464 0.00013972Z" transform="translate(28.889 15.9478)" fill="#000301"/>
</svg>
