<svg width="57" height="37" viewBox="0 0 57 37" fill="none" xmlns="http://www.w3.org/2000/svg">
<path d="M2.32197 0.226C2.09297 0.076 1.75197 2.28882e-07 1.30397 2.28882e-07L0.920967 0.00199913C0.669967 -8.69855e-07 0.412967 0.201999 0.363967 0.445999L0.0109673 1.966C-0.0440327 2.212 0.112967 2.413 0.366967 2.413H0.652967C1.28797 2.413 1.77997 2.284 2.13297 2.024C2.48597 1.766 2.66697 1.399 2.65897 0.924C2.66097 0.61 2.54797 0.375 2.32197 0.226Z" transform="translate(9.79904 14.6958)" fill="#0C0712"/>
<path d="M2.304 3.20435e-07C2.235 0.00200032 1.706 0.0619996 1.438 0.0949996C1.138 0.138 0.877999 0.197999 0.666999 0.268999L0.171001 0.607001C0.0550009 0.753001 -5.64575e-07 0.939 -5.64575e-07 1.178L0.225999 1.616C0.378999 1.702 0.604999 1.744 0.892999 1.744C1.083 1.744 1.289 1.698 1.505 1.61L1.965 1.373L2.147 1.131C2.219 0.849001 2.368 0.221999 2.385 0.143999L2.304 3.20435e-07Z" transform="translate(16.067 18.4248)" fill="#0C0712"/>
<path d="M55.026 1.297e-07H1.454C0.65 1.297e-07 0 0.651 0 1.454V35.148C0 35.951 0.65 36.603 1.454 36.603H55.026C55.83 36.603 56.48 35.952 56.48 35.149V1.454C56.48 0.651 55.83 1.297e-07 55.026 1.297e-07ZM13.484 17.756C12.688 18.342 11.58 18.634 10.148 18.636H9.814C9.557 18.636 9.306 18.838 9.253 19.08L8.851 20.818C8.794 21.066 8.543 21.264 8.289 21.264H7.119C6.865 21.264 6.706 21.06 6.766 20.818L8.411 13.655C8.471 13.409 8.72 13.212 8.974 13.208L11.418 13.207C11.946 13.212 12.403 13.244 12.799 13.316C13.189 13.39 13.529 13.514 13.817 13.69C14.093 13.864 14.316 14.097 14.456 14.379C14.612 14.661 14.681 15.014 14.681 15.434C14.681 16.394 14.286 17.17 13.484 17.756ZM20.746 16.842L20.702 17.143L19.848 20.835C19.798 21.057 19.578 21.246 19.345 21.273L19.329 21.279H19.16H18.262H18.241L18.237 21.275C18.014 21.254 17.876 21.065 17.924 20.837V20.835L17.926 20.828L17.97 20.64L17.964 20.633L17.523 20.924L17.043 21.192L16.477 21.386C16.303 21.428 16.058 21.453 15.742 21.453C15.243 21.453 14.825 21.316 14.509 21.033C14.195 20.744 14.033 20.375 14.033 19.923C14.033 19.443 14.144 19.037 14.367 18.699C14.598 18.363 14.928 18.101 15.374 17.905C15.789 17.716 16.288 17.576 16.858 17.497C17.44 17.413 17.92 17.352 18.585 17.31L18.753 17.206L18.774 17.041C18.774 16.787 18.656 16.612 18.421 16.509C18.183 16.409 17.825 16.359 17.357 16.359C17.039 16.355 16.639 16.42 16.26 16.506C15.863 16.596 15.754 16.655 15.56 16.713C15.47 16.744 15.253 16.759 15.334 16.383L15.477 15.794C15.477 15.794 15.547 15.349 15.992 15.252C16.207 15.204 16.241 15.195 16.592 15.141C17.067 15.068 17.537 15.031 18.008 15.031C18.961 15.031 19.659 15.155 20.1 15.404C20.543 15.652 20.769 16.04 20.767 16.561L20.746 16.842ZM22.627 24.116L21.415 24.118C21.163 24.118 21.08 23.918 21.234 23.672L22.271 21.864C22.271 21.864 22.354 21.761 22.28 21.171C22.12 20.105 21.324 15.573 21.324 15.573C21.266 15.328 21.422 15.127 21.674 15.127L22.723 15.125C23.044 15.125 23.302 15.336 23.36 15.584L23.882 18.727L24.076 18.729C24.239 18.44 25.915 15.564 25.915 15.564C26.075 15.322 26.399 15.117 26.651 15.117C26.651 15.117 27.778 15.12 28.055 15.117C28.471 15.111 28.023 15.785 28.023 15.785L23.359 23.672C23.209 23.918 22.877 24.116 22.627 24.116ZM34.744 17.787C33.945 18.37 32.832 18.665 31.4 18.665H31.066C30.814 18.661 30.562 18.866 30.504 19.108L30.108 20.849C30.05 21.092 29.794 21.292 29.546 21.289L28.373 21.292C28.124 21.293 27.96 21.091 28.02 20.848L29.666 13.681C29.726 13.438 29.972 13.24 30.226 13.236L32.673 13.234C33.198 13.236 33.66 13.273 34.048 13.342C34.443 13.414 34.783 13.538 35.067 13.715C35.346 13.894 35.565 14.123 35.711 14.407C35.861 14.687 35.934 15.041 35.936 15.461C35.936 16.42 35.535 17.194 34.744 17.787ZM42.002 16.847L41.959 17.15L41.103 20.839C41.055 21.062 40.834 21.251 40.604 21.279L40.588 21.285H40.42C40.178 21.285 39.668 21.285 39.521 21.285H39.5L39.498 21.279C39.271 21.258 39.131 21.07 39.186 20.841L39.184 20.838L39.189 20.834L39.228 20.646L39.221 20.637L38.783 20.932L38.3 21.199L37.735 21.39C37.561 21.435 37.315 21.454 37.002 21.459C36.502 21.459 36.088 21.317 35.77 21.036C35.454 20.75 35.291 20.379 35.291 19.925C35.291 19.448 35.402 19.04 35.626 18.704C35.855 18.368 36.19 18.107 36.632 17.909C37.05 17.719 37.552 17.581 38.119 17.501C38.697 17.417 39.177 17.356 39.847 17.315L40.015 17.209L40.033 17.044C40.033 16.792 39.917 16.615 39.679 16.513C39.441 16.412 39.083 16.362 38.617 16.362C38.297 16.36 37.896 16.424 37.518 16.509C37.123 16.601 37.016 16.658 36.823 16.716C36.725 16.745 36.514 16.762 36.594 16.386L36.737 15.798C36.737 15.798 36.804 15.352 37.251 15.256C37.468 15.209 37.503 15.198 37.853 15.147C38.325 15.071 38.798 15.034 39.269 15.034C40.218 15.034 40.915 15.16 41.36 15.409C41.806 15.657 42.029 16.043 42.029 16.564L42.002 16.847ZM45.752 13.74L44.184 20.841L44.129 20.925C44.036 21.125 43.838 21.287 43.623 21.287H42.535L42.515 21.262C42.308 21.23 42.173 21.063 42.222 20.845L42.22 20.84L42.267 20.635L43.733 13.973L43.785 13.741L43.844 13.65C43.939 13.454 44.133 13.295 44.348 13.295H45.395C45.65 13.295 45.803 13.494 45.749 13.738L45.752 13.74ZM47.83 12.972H47.438V13.493L47.441 13.633L47.468 13.727L47.53 13.787L47.65 13.806L47.748 13.792L47.821 13.77H47.83V13.941L47.713 13.964L47.602 13.973L47.336 13.878L47.245 13.578V12.972H47.113V12.81H47.245V12.485H47.438V12.81H47.83V12.972ZM49.725 13.211V13.948H49.536V13.298L49.524 13.159L49.499 13.049L49.433 12.984L49.306 12.961L49.147 13.002L48.984 13.105L48.987 13.161L48.989 13.221V13.95H48.799V13.3L48.791 13.159L48.764 13.05L48.7 12.985L48.571 12.962L48.414 13.001L48.255 13.1V13.95H48.067V12.811H48.255V12.938L48.437 12.822L48.625 12.78L48.823 12.827L48.945 12.963L49.155 12.822L49.36 12.78L49.637 12.893L49.727 13.211H49.725Z" fill="#000301"/>
<path d="M2.3 1.27899e-05C2.231 -0.00098721 1.704 0.0610121 1.44 0.0950121C1.137 0.138012 0.878002 0.197012 0.669002 0.269012C0.455002 0.353012 0.280998 0.466011 0.167998 0.607011C0.0559984 0.753011 -8.8501e-07 0.939012 -8.8501e-07 1.17901L0.228999 1.61601C0.374999 1.70301 0.598 1.74501 0.895 1.74501C1.082 1.74501 1.288 1.69901 1.503 1.61201L1.96 1.37501L2.148 1.13301C2.218 0.848012 2.37 0.223011 2.382 0.145011L2.3 1.27899e-05Z" transform="translate(37.328 18.4312)" fill="#0C0712"/>
<path d="M2.32238 0.227C2.09138 0.0760005 1.75538 0.0019993 1.30638 -7.01904e-07L0.925377 0.00200011C0.673377 1.06636e-07 0.417377 0.204 0.365377 0.447L0.0113772 1.966C-0.0456228 2.21 0.117376 2.414 0.370376 2.412H0.661377C1.29438 2.412 1.78538 2.282 2.13938 2.028C2.48938 1.767 2.66738 1.403 2.66538 0.923999C2.65938 0.611999 2.55038 0.377001 2.32238 0.227Z" transform="translate(31.0496 14.7222)" fill="#0C0712"/>
</svg>
