<svg width="57" height="37" viewBox="0 0 57 37" fill="none" xmlns="http://www.w3.org/2000/svg">
<path d="M55.026 1.297e-07H1.454C0.65 1.297e-07 0 0.651 0 1.454V35.149C0 35.952 0.65 36.603 1.454 36.603H55.026C55.83 36.603 56.48 35.952 56.48 35.149V1.454C56.48 0.651 55.83 1.297e-07 55.026 1.297e-07ZM4.373 11.061H10.401C11.214 11.092 11.869 11.351 12.095 12.22L13.406 18.525C12.118 15.227 9.014 12.483 4.323 11.347L4.373 11.061ZM11.667 25.441L8.185 13.545C10.688 15.147 12.82 17.689 13.571 19.458L13.977 20.927L17.785 11.198H21.905L15.782 25.438L11.667 25.441ZM24.933 25.451H21.045L23.476 11.183H27.366L24.933 25.451ZM31.699 25.665C29.956 25.647 28.277 25.302 27.367 24.903L27.914 21.71L28.415 21.937C29.692 22.47 30.519 22.686 32.076 22.686C33.193 22.686 34.39 22.249 34.401 21.293C34.408 20.668 33.9 20.222 32.386 19.522C30.91 18.84 28.956 17.696 28.98 15.647C29.001 12.874 31.709 10.939 35.552 10.939C37.058 10.939 38.265 11.249 39.035 11.538L38.51 14.631L38.159 14.466C37.443 14.178 36.522 13.9 35.249 13.92C33.727 13.92 33.021 14.554 33.021 15.147C33.013 15.815 33.845 16.255 35.205 16.917C37.448 17.935 38.485 19.17 38.471 20.793C38.441 23.753 35.788 25.665 31.699 25.665ZM48.549 25.457C48.549 25.457 48.194 23.817 48.076 23.319C47.51 23.319 43.542 23.313 43.096 23.313C42.945 23.698 42.279 25.457 42.279 25.457H38.196L43.969 12.382C44.379 11.453 45.074 11.198 46.006 11.198H49.01L52.157 25.456L48.549 25.457Z" fill="#000301"/>
<path d="M2.328 1.23L2.066 6.10352e-07C1.868 0.537001 1.527 1.4 1.549 1.362C1.549 1.362 0.320001 4.529 7.01904e-07 5.35H3.229C3.073 4.635 2.328 1.23 2.328 1.23Z" transform="translate(44.214 15.0459)" fill="#0C0712"/>
</svg>
