<svg width="378" height="256" viewBox="0 0 378 256" fill="none" xmlns="http://www.w3.org/2000/svg">
<rect width="378" height="255" rx="2" fill="#171A21"/>
<rect x="37.5" y="33.5" width="277" height="167" stroke="#2C5876" stroke-width="3"/>
<path d="M28 220.5V25H322.5V220.5H28Z" stroke="#2C5876" stroke-width="3"/>
<rect x="49" y="42" width="253" height="10" stroke="#2C5876" stroke-width="2"/>
<rect x="49" y="52" width="253" height="140" stroke="#2C5876" stroke-width="2"/>
<path d="M170.226 88.6872H169.726V88.1872V81.5732L166.848 86.543L170.423 92.7171H177.577L181.152 86.543L178.365 81.7301V88.1872V88.6872H177.865H170.226Z" fill="#2C5876" stroke="#2C5876"/>
<mask id="path-7-inside-1" fill="white">
<path d="M170 93.45H178L182 86.543L177.632 79V87.9546H170.459V79.6361H170L166 86.543L170 93.45ZM177.73 92.9844H170.27L166.539 86.543L169.992 80.5808V88.4202H178.099V80.7377L181.46 86.543L177.73 92.9844Z"/>
</mask>
<path d="M170 93.45H178L182 86.543L177.632 79V87.9546H170.459V79.6361H170L166 86.543L170 93.45ZM177.73 92.9844H170.27L166.539 86.543L169.992 80.5808V88.4202H178.099V80.7377L181.46 86.543L177.73 92.9844Z" fill="#2C5876"/>
<path d="M170 93.45V95.45H168.847L168.269 94.4523L170 93.45ZM178 93.45L179.731 94.4522L179.153 95.45H178V93.45ZM182 86.543L183.731 85.5407L184.311 86.543L183.731 87.5453L182 86.543ZM177.632 79H175.632V71.5554L179.363 77.9977L177.632 79ZM177.632 87.9546H179.632V89.9546H177.632V87.9546ZM170.459 87.9546V89.9546H168.459V87.9546H170.459ZM170.459 79.6361V77.6361H172.459V79.6361H170.459ZM170 79.6361L168.269 78.6337L168.847 77.6361H170V79.6361ZM166 86.543L164.269 87.5453L163.689 86.543L164.269 85.5407L166 86.543ZM177.73 92.9844L179.461 93.9865L178.883 94.9844H177.73V92.9844ZM170.27 92.9844V94.9844H169.117L168.539 93.9866L170.27 92.9844ZM166.539 86.543L164.809 87.5453L164.228 86.543L164.809 85.5407L166.539 86.543ZM169.992 80.5808L168.261 79.5785L171.992 73.1363V80.5808H169.992ZM169.992 88.4202V90.4202H167.992V88.4202H169.992ZM178.099 88.4202H180.099V90.4202H178.099V88.4202ZM178.099 80.7377H176.099V73.2927L179.829 79.7355L178.099 80.7377ZM181.46 86.543L183.191 85.5408L183.771 86.543L183.191 87.5452L181.46 86.543ZM170 91.45H178V95.45H170V91.45ZM176.269 92.4477L180.269 85.5407L183.731 87.5453L179.731 94.4522L176.269 92.4477ZM180.269 87.5453L175.901 80.0023L179.363 77.9977L183.731 85.5407L180.269 87.5453ZM179.632 79V87.9546H175.632V79H179.632ZM177.632 89.9546H170.459V85.9546H177.632V89.9546ZM168.459 87.9546V79.6361H172.459V87.9546H168.459ZM170.459 81.6361H170V77.6361H170.459V81.6361ZM171.731 80.6384L167.731 87.5453L164.269 85.5407L168.269 78.6337L171.731 80.6384ZM167.731 85.5407L171.731 92.4476L168.269 94.4523L164.269 87.5453L167.731 85.5407ZM177.73 94.9844H170.27V90.9844H177.73V94.9844ZM168.539 93.9866L164.809 87.5453L168.27 85.5407L172 91.9821L168.539 93.9866ZM164.809 85.5407L168.261 79.5785L171.723 81.5831L168.27 87.5453L164.809 85.5407ZM171.992 80.5808V88.4202H167.992V80.5808H171.992ZM169.992 86.4202H178.099V90.4202H169.992V86.4202ZM176.099 88.4202V80.7377H180.099V88.4202H176.099ZM179.829 79.7355L183.191 85.5408L179.729 87.5452L176.368 81.7399L179.829 79.7355ZM183.191 87.5452L179.461 93.9865L176 91.9822L179.729 85.5408L183.191 87.5452Z" fill="#2C5876" mask="url(#path-7-inside-1)"/>
<path d="M178.246 115.045L177.347 92.7171H170.653L169.754 115.045C169.759 117.377 171.657 119.267 174 119.267C176.343 119.267 178.241 117.377 178.246 115.045Z" fill="#2C5876" stroke="#2C5876"/>
<mask id="path-10-inside-2" fill="white">
<path d="M174 120C176.746 120 178.979 117.773 178.979 115.036L178.052 91.9843H169.948L169.021 115.026C169.02 117.773 171.254 120 174 120ZM177.603 92.4499L178.513 115.045C178.513 117.517 176.489 119.535 174 119.535C171.512 119.535 169.488 117.517 169.488 115.036L170.397 92.4501H177.603V92.4499Z"/>
</mask>
<path d="M174 120C176.746 120 178.979 117.773 178.979 115.036L178.052 91.9843H169.948L169.021 115.026C169.02 117.773 171.254 120 174 120ZM177.603 92.4499L178.513 115.045C178.513 117.517 176.489 119.535 174 119.535C171.512 119.535 169.488 117.517 169.488 115.036L170.397 92.4501H177.603V92.4499Z" fill="#2C5876"/>
<path d="M178.979 115.036L179.979 114.995L179.979 115.015V115.036H178.979ZM178.052 91.9843V90.9843H179.013L179.051 91.9441L178.052 91.9843ZM169.948 91.9843L168.949 91.9441L168.988 90.9843H169.948V91.9843ZM169.021 115.026L168.021 115.026L168.021 115.006L168.021 114.986L169.021 115.026ZM177.603 92.4499H176.603L178.603 92.4097L177.603 92.4499ZM178.513 115.045L179.512 115.005L179.513 115.025L179.513 115.045L178.513 115.045ZM169.488 115.036H168.488V115.016L168.488 114.996L169.488 115.036ZM170.397 92.4501L169.398 92.4099L169.436 91.4501H170.397V92.4501ZM177.603 92.4501H178.603V93.4501H177.603V92.4501ZM174 119C176.196 119 177.979 117.218 177.979 115.036H179.979C179.979 118.328 177.295 121 174 121V119ZM177.98 115.076L177.053 92.0245L179.051 91.9441L179.979 114.995L177.98 115.076ZM178.052 92.9843H169.948V90.9843H178.052V92.9843ZM170.947 92.0246L170.02 115.067L168.021 114.986L168.949 91.9441L170.947 92.0246ZM170.021 115.026C170.02 117.219 171.805 119 174 119V121C170.704 121 168.02 118.327 168.021 115.026L170.021 115.026ZM178.603 92.4097L179.512 115.005L177.514 115.085L176.604 92.4902L178.603 92.4097ZM179.513 115.045C179.513 118.073 177.037 120.535 174 120.535V118.535C175.94 118.535 177.513 116.96 177.513 115.045L179.513 115.045ZM174 120.535C170.962 120.535 168.488 118.072 168.488 115.036H170.488C170.488 116.961 172.061 118.535 174 118.535V120.535ZM168.488 114.996L169.398 92.4099L171.396 92.4904L170.487 115.076L168.488 114.996ZM170.397 91.4501H177.603V93.4501H170.397V91.4501ZM176.603 92.4501V92.4499H178.603V92.4501H176.603Z" fill="#2C5876" mask="url(#path-10-inside-2)"/>
<path d="M62.5 75H118" stroke="#2C5876"/>
<path d="M62.5 88.5H118" stroke="#2C5876"/>
<path d="M62.5 101H118" stroke="#2C5876"/>
<path d="M62.5 114.5H118" stroke="#2C5876"/>
<path d="M62.5 126H118" stroke="#2C5876"/>
<rect x="62.25" y="135.25" width="121.5" height="0.5" stroke="#2C5876" stroke-width="0.5"/>
<rect x="62.25" y="148.25" width="121.5" height="0.5" stroke="#2C5876" stroke-width="0.5"/>
<rect x="62.25" y="161.25" width="121.5" height="0.5" stroke="#2C5876" stroke-width="0.5"/>
<rect x="49" y="42" width="20" height="10" stroke="#2C5876" stroke-width="2"/>
<rect x="69" y="42" width="20" height="10" stroke="#2C5876" stroke-width="2"/>
<rect x="89" y="42" width="20" height="10" stroke="#2C5876" stroke-width="2"/>
<rect x="109" y="42" width="20" height="10" stroke="#2C5876" stroke-width="2"/>
<rect x="129" y="42" width="20" height="10" stroke="#2C5876" stroke-width="2"/>
<rect x="149" y="42" width="20" height="10" stroke="#2C5876" stroke-width="2"/>
<rect x="292" y="42" width="10" height="10" stroke="#2C5876" stroke-width="2"/>
<rect x="282" y="42" width="10" height="10" stroke="#2C5876" stroke-width="2"/>
<rect x="272" y="42" width="10" height="10" stroke="#2C5876" stroke-width="2"/>
<rect x="133" y="72" width="82" height="56" stroke="#2C5876" stroke-width="2"/>
<g filter="url(#filter0_d)">
<mask id="path-30-inside-3" fill="white">
<path d="M212.895 189.726L211.774 190.075L212.112 191.195C213.988 197.442 216.692 203.365 220.165 208.81L220.786 209.783L221.778 209.193C224.651 207.478 227.939 206.448 231.29 206.201C236.903 205.788 242.379 207.544 246.711 211.139C253.741 216.989 256.3 226.675 253.077 235.235L252.671 236.316L253.747 236.746C259.842 239.21 266.254 240.816 272.809 241.517L273.968 241.641L274.115 240.486C274.628 236.402 276.3 232.564 278.94 229.385C282.73 224.862 288.076 222.129 293.98 221.694C299.603 221.28 305.08 223.033 309.404 226.62C311.311 228.232 312.906 230.123 314.153 232.249L314.742 233.254L315.76 232.681C321.488 229.46 326.756 225.431 331.418 220.702L332.227 219.881L331.428 219.049C323.811 211.163 323.376 198.832 330.437 190.37C334.216 185.858 339.551 183.133 345.448 182.699C346.907 182.592 348.382 182.627 349.834 182.816L350.98 182.959L351.155 181.821C352.16 175.418 352.291 168.922 351.544 162.508L351.183 161.399L350.047 161.483C344.39 161.899 338.886 160.144 334.541 156.551C330.113 152.857 327.385 147.665 326.865 141.926C326.346 136.185 328.1 130.592 331.802 126.177C332.329 125.552 332.884 124.991 333.445 124.452L334.284 123.658L333.506 122.801C331.294 120.372 328.898 118.065 326.373 115.947C323.757 113.8 321.123 111.917 318.329 110.189L317.352 109.585L316.713 110.545C316.284 111.189 315.819 111.836 315.312 112.45C311.515 116.975 306.177 119.711 300.279 120.145C294.653 120.56 289.17 118.806 284.833 115.215C280.442 111.554 277.714 106.388 277.161 100.672L277.052 99.5301L275.298 99.6466C269.002 100.11 262.814 101.393 256.906 103.456L255.816 103.839L256.164 104.936C258.422 112.004 256.932 119.617 252.163 125.301C251.268 126.379 250.25 127.374 249.132 128.273C245.713 131.026 241.575 132.652 237.162 132.977C232.423 133.326 227.63 132.089 223.671 129.493L222.706 128.862L222.044 129.804C221.524 130.542 221.021 131.294 220.537 132.047C217.419 136.839 214.89 141.989 213.014 147.357L212.63 148.47L213.747 148.862C216.141 149.706 218.361 150.954 220.33 152.581C224.768 156.265 227.502 161.453 228.018 167.188C228.539 172.926 226.784 178.523 223.096 182.943C220.403 186.138 216.877 188.488 212.895 189.726Z"/>
<path d="M275.193 98.2141L278.353 98.0022L278.6 100.535C279.113 105.872 281.658 110.693 285.762 114.114C289.809 117.466 294.928 119.1 300.175 118.714C305.676 118.309 310.658 115.76 314.205 111.531C314.673 110.965 315.109 110.356 315.511 109.753L316.924 107.629L319.092 108.97C321.956 110.743 324.638 112.662 327.291 114.841C329.859 116.995 332.307 119.344 334.575 121.837L336.302 123.74L334.438 125.5C333.92 125.996 333.399 126.521 332.907 127.106C329.454 131.223 327.819 136.442 328.302 141.799C328.786 147.153 331.331 152.001 335.466 155.448C339.52 158.803 344.661 160.439 349.939 160.051L352.205 159.884L352.916 162.066C353.739 168.886 353.605 175.515 352.581 182.047L352.193 184.563L349.654 184.246C348.311 184.073 346.935 184.036 345.553 184.138C340.045 184.543 335.07 187.084 331.544 191.295C324.96 199.186 325.354 210.691 332.468 218.052L334.237 219.896L332.446 221.713C327.69 226.539 322.313 230.651 316.468 233.939L314.212 235.207L312.905 232.978C311.743 230.997 310.25 229.227 308.468 227.72C304.441 224.379 299.329 222.747 294.085 223.133C288.57 223.539 283.584 226.087 280.048 230.311C277.583 233.28 276.024 236.863 275.546 240.667L275.221 243.226L272.654 242.952C265.97 242.238 259.426 240.598 253.203 238.084L250.824 237.132L251.724 234.734C254.731 226.744 252.345 217.707 245.783 212.247C241.738 208.891 236.628 207.254 231.393 207.64C228.261 207.87 225.191 208.837 222.517 210.43L220.318 211.737L218.945 209.586C215.408 204.04 212.643 197.994 210.726 191.612L209.977 189.131L212.461 188.354C216.171 187.201 219.466 185.011 221.992 182.021C225.434 177.897 227.066 172.674 226.579 167.323C226.1 161.975 223.55 157.133 219.406 153.692C217.58 152.184 215.513 151.015 213.264 150.224L210.796 149.36L211.648 146.893C213.565 141.408 216.147 136.15 219.325 131.267C219.817 130.505 220.33 129.733 220.864 128.978L222.326 126.894L224.461 128.294C231.595 132.969 241.606 132.482 248.222 127.156C249.275 126.312 250.225 125.38 251.048 124.388C255.499 119.08 256.895 111.975 254.785 105.376L254.011 102.947L256.424 102.103C262.458 99.9947 268.769 98.687 275.193 98.2141ZM275.751 101.063L275.399 101.085C269.313 101.533 263.333 102.762 257.615 104.737C259.918 112.212 258.301 120.229 253.27 126.226C252.328 127.361 251.24 128.43 250.037 129.395C246.391 132.331 241.975 134.068 237.268 134.414C232.295 134.78 227.269 133.51 223.087 130.833C222.626 131.491 222.182 132.159 221.753 132.824C218.744 137.448 216.292 142.412 214.462 147.59C216.944 148.494 219.226 149.8 221.252 151.475C225.993 155.412 228.906 160.947 229.457 167.063C230.013 173.176 228.148 179.144 224.207 183.865C221.375 187.216 217.702 189.687 213.566 191.021C215.38 196.985 217.964 202.636 221.25 207.83C224.257 206.081 227.685 205.022 231.182 204.765C237.166 204.324 243.008 206.195 247.632 210.031C255.073 216.223 257.818 226.43 254.515 235.503C260.346 237.835 266.465 239.368 272.712 240.058C273.292 235.802 275.06 231.799 277.827 228.469C281.873 223.638 287.571 220.723 293.873 220.259C299.868 219.818 305.711 221.684 310.326 225.513C312.302 227.184 313.962 229.13 315.27 231.305C320.724 228.212 325.749 224.367 330.214 219.87C322.248 211.446 321.851 198.412 329.326 189.451C333.359 184.635 339.046 181.728 345.341 181.265C346.83 181.155 348.317 181.186 349.764 181.358C350.701 175.241 350.827 169.042 350.137 162.921C344.116 163.36 338.249 161.493 333.618 157.66C328.887 153.714 325.981 148.175 325.426 142.057C324.871 135.932 326.743 129.965 330.693 125.255C331.202 124.654 331.731 124.106 332.268 123.585C330.134 121.258 327.838 119.058 325.444 117.05C322.967 115.018 320.454 113.212 317.779 111.547C317.362 112.163 316.911 112.781 316.427 113.366C312.367 118.205 306.672 121.12 300.385 121.582C294.388 122.024 288.538 120.156 283.91 116.322C279.283 112.467 276.393 107.056 275.751 101.063Z"/>
</mask>
<path d="M212.895 189.726L211.774 190.075L212.112 191.195C213.988 197.442 216.692 203.365 220.165 208.81L220.786 209.783L221.778 209.193C224.651 207.478 227.939 206.448 231.29 206.201C236.903 205.788 242.379 207.544 246.711 211.139C253.741 216.989 256.3 226.675 253.077 235.235L252.671 236.316L253.747 236.746C259.842 239.21 266.254 240.816 272.809 241.517L273.968 241.641L274.115 240.486C274.628 236.402 276.3 232.564 278.94 229.385C282.73 224.862 288.076 222.129 293.98 221.694C299.603 221.28 305.08 223.033 309.404 226.62C311.311 228.232 312.906 230.123 314.153 232.249L314.742 233.254L315.76 232.681C321.488 229.46 326.756 225.431 331.418 220.702L332.227 219.881L331.428 219.049C323.811 211.163 323.376 198.832 330.437 190.37C334.216 185.858 339.551 183.133 345.448 182.699C346.907 182.592 348.382 182.627 349.834 182.816L350.98 182.959L351.155 181.821C352.16 175.418 352.291 168.922 351.544 162.508L351.183 161.399L350.047 161.483C344.39 161.899 338.886 160.144 334.541 156.551C330.113 152.857 327.385 147.665 326.865 141.926C326.346 136.185 328.1 130.592 331.802 126.177C332.329 125.552 332.884 124.991 333.445 124.452L334.284 123.658L333.506 122.801C331.294 120.372 328.898 118.065 326.373 115.947C323.757 113.8 321.123 111.917 318.329 110.189L317.352 109.585L316.713 110.545C316.284 111.189 315.819 111.836 315.312 112.45C311.515 116.975 306.177 119.711 300.279 120.145C294.653 120.56 289.17 118.806 284.833 115.215C280.442 111.554 277.714 106.388 277.161 100.672L277.052 99.5301L275.298 99.6466C269.002 100.11 262.814 101.393 256.906 103.456L255.816 103.839L256.164 104.936C258.422 112.004 256.932 119.617 252.163 125.301C251.268 126.379 250.25 127.374 249.132 128.273C245.713 131.026 241.575 132.652 237.162 132.977C232.423 133.326 227.63 132.089 223.671 129.493L222.706 128.862L222.044 129.804C221.524 130.542 221.021 131.294 220.537 132.047C217.419 136.839 214.89 141.989 213.014 147.357L212.63 148.47L213.747 148.862C216.141 149.706 218.361 150.954 220.33 152.581C224.768 156.265 227.502 161.453 228.018 167.188C228.539 172.926 226.784 178.523 223.096 182.943C220.403 186.138 216.877 188.488 212.895 189.726Z" fill="#88AA00"/>
<path d="M275.193 98.2141L278.353 98.0022L278.6 100.535C279.113 105.872 281.658 110.693 285.762 114.114C289.809 117.466 294.928 119.1 300.175 118.714C305.676 118.309 310.658 115.76 314.205 111.531C314.673 110.965 315.109 110.356 315.511 109.753L316.924 107.629L319.092 108.97C321.956 110.743 324.638 112.662 327.291 114.841C329.859 116.995 332.307 119.344 334.575 121.837L336.302 123.74L334.438 125.5C333.92 125.996 333.399 126.521 332.907 127.106C329.454 131.223 327.819 136.442 328.302 141.799C328.786 147.153 331.331 152.001 335.466 155.448C339.52 158.803 344.661 160.439 349.939 160.051L352.205 159.884L352.916 162.066C353.739 168.886 353.605 175.515 352.581 182.047L352.193 184.563L349.654 184.246C348.311 184.073 346.935 184.036 345.553 184.138C340.045 184.543 335.07 187.084 331.544 191.295C324.96 199.186 325.354 210.691 332.468 218.052L334.237 219.896L332.446 221.713C327.69 226.539 322.313 230.651 316.468 233.939L314.212 235.207L312.905 232.978C311.743 230.997 310.25 229.227 308.468 227.72C304.441 224.379 299.329 222.747 294.085 223.133C288.57 223.539 283.584 226.087 280.048 230.311C277.583 233.28 276.024 236.863 275.546 240.667L275.221 243.226L272.654 242.952C265.97 242.238 259.426 240.598 253.203 238.084L250.824 237.132L251.724 234.734C254.731 226.744 252.345 217.707 245.783 212.247C241.738 208.891 236.628 207.254 231.393 207.64C228.261 207.87 225.191 208.837 222.517 210.43L220.318 211.737L218.945 209.586C215.408 204.04 212.643 197.994 210.726 191.612L209.977 189.131L212.461 188.354C216.171 187.201 219.466 185.011 221.992 182.021C225.434 177.897 227.066 172.674 226.579 167.323C226.1 161.975 223.55 157.133 219.406 153.692C217.58 152.184 215.513 151.015 213.264 150.224L210.796 149.36L211.648 146.893C213.565 141.408 216.147 136.15 219.325 131.267C219.817 130.505 220.33 129.733 220.864 128.978L222.326 126.894L224.461 128.294C231.595 132.969 241.606 132.482 248.222 127.156C249.275 126.312 250.225 125.38 251.048 124.388C255.499 119.08 256.895 111.975 254.785 105.376L254.011 102.947L256.424 102.103C262.458 99.9947 268.769 98.687 275.193 98.2141ZM275.751 101.063L275.399 101.085C269.313 101.533 263.333 102.762 257.615 104.737C259.918 112.212 258.301 120.229 253.27 126.226C252.328 127.361 251.24 128.43 250.037 129.395C246.391 132.331 241.975 134.068 237.268 134.414C232.295 134.78 227.269 133.51 223.087 130.833C222.626 131.491 222.182 132.159 221.753 132.824C218.744 137.448 216.292 142.412 214.462 147.59C216.944 148.494 219.226 149.8 221.252 151.475C225.993 155.412 228.906 160.947 229.457 167.063C230.013 173.176 228.148 179.144 224.207 183.865C221.375 187.216 217.702 189.687 213.566 191.021C215.38 196.985 217.964 202.636 221.25 207.83C224.257 206.081 227.685 205.022 231.182 204.765C237.166 204.324 243.008 206.195 247.632 210.031C255.073 216.223 257.818 226.43 254.515 235.503C260.346 237.835 266.465 239.368 272.712 240.058C273.292 235.802 275.06 231.799 277.827 228.469C281.873 223.638 287.571 220.723 293.873 220.259C299.868 219.818 305.711 221.684 310.326 225.513C312.302 227.184 313.962 229.13 315.27 231.305C320.724 228.212 325.749 224.367 330.214 219.87C322.248 211.446 321.851 198.412 329.326 189.451C333.359 184.635 339.046 181.728 345.341 181.265C346.83 181.155 348.317 181.186 349.764 181.358C350.701 175.241 350.827 169.042 350.137 162.921C344.116 163.36 338.249 161.493 333.618 157.66C328.887 153.714 325.981 148.175 325.426 142.057C324.871 135.932 326.743 129.965 330.693 125.255C331.202 124.654 331.731 124.106 332.268 123.585C330.134 121.258 327.838 119.058 325.444 117.05C322.967 115.018 320.454 113.212 317.779 111.547C317.362 112.163 316.911 112.781 316.427 113.366C312.367 118.205 306.672 121.12 300.385 121.582C294.388 122.024 288.538 120.156 283.91 116.322C279.283 112.467 276.393 107.056 275.751 101.063Z" fill="#88AA00"/>
<path d="M212.895 189.726L212.628 188.866L212.627 188.867L212.895 189.726ZM211.774 190.075L211.506 189.216L210.654 189.481L210.912 190.336L211.774 190.075ZM212.112 191.195L212.974 190.936L212.974 190.934L212.112 191.195ZM220.165 208.81L219.407 209.294L219.407 209.295L220.165 208.81ZM220.786 209.783L220.028 210.267L220.497 211.002L221.246 210.556L220.786 209.783ZM221.778 209.193L222.238 209.967L222.239 209.966L221.778 209.193ZM231.29 206.201L231.224 205.304L231.29 206.201ZM246.711 211.139L247.287 210.447L247.286 210.446L246.711 211.139ZM253.077 235.235L252.235 234.918L252.235 234.918L253.077 235.235ZM252.671 236.316L251.829 236L251.519 236.824L252.337 237.152L252.671 236.316ZM253.747 236.746L254.084 235.912L254.081 235.911L253.747 236.746ZM272.809 241.517L272.905 240.622L272.905 240.622L272.809 241.517ZM273.968 241.641L273.872 242.536L274.749 242.63L274.861 241.754L273.968 241.641ZM274.115 240.486L275.007 240.599L275.008 240.598L274.115 240.486ZM278.94 229.385L278.25 228.807L278.248 228.81L278.94 229.385ZM293.98 221.694L294.046 222.592L293.98 221.694ZM309.404 226.62L309.985 225.932L309.978 225.927L309.404 226.62ZM314.153 232.249L314.93 231.794L314.93 231.794L314.153 232.249ZM314.742 233.254L313.965 233.709L314.413 234.472L315.183 234.038L314.742 233.254ZM315.76 232.681L315.319 231.896L315.319 231.896L315.76 232.681ZM331.418 220.702L330.777 220.07L330.777 220.07L331.418 220.702ZM332.227 219.881L332.868 220.512L333.484 219.888L332.876 219.257L332.227 219.881ZM331.428 219.049L332.076 218.425L332.075 218.424L331.428 219.049ZM330.437 190.37L329.747 189.792L329.746 189.794L330.437 190.37ZM345.448 182.699L345.514 183.597L345.448 182.699ZM349.834 182.816L349.718 183.708L349.722 183.709L349.834 182.816ZM350.98 182.959L350.868 183.852L351.736 183.961L351.869 183.097L350.98 182.959ZM351.155 181.821L350.266 181.682L350.266 181.684L351.155 181.821ZM351.544 162.508L352.438 162.404L352.428 162.315L352.4 162.229L351.544 162.508ZM351.183 161.399L352.039 161.121L351.821 160.45L351.117 160.502L351.183 161.399ZM350.047 161.483L350.113 162.38L350.113 162.38L350.047 161.483ZM334.541 156.551L333.965 157.242L333.968 157.244L334.541 156.551ZM326.865 141.926L325.969 142.007L325.969 142.007L326.865 141.926ZM331.802 126.177L331.114 125.598L331.113 125.599L331.802 126.177ZM333.445 124.452L332.827 123.798L332.822 123.803L333.445 124.452ZM334.284 123.658L334.902 124.312L335.542 123.706L334.95 123.054L334.284 123.658ZM333.506 122.801L334.173 122.197L334.172 122.195L333.506 122.801ZM326.373 115.947L326.952 115.257L326.944 115.251L326.373 115.947ZM318.329 110.189L317.855 110.955L317.856 110.955L318.329 110.189ZM317.352 109.585L317.826 108.82L317.085 108.361L316.603 109.086L317.352 109.585ZM316.713 110.545L317.462 111.045L317.463 111.044L316.713 110.545ZM315.312 112.45L316.001 113.028L316.005 113.023L315.312 112.45ZM300.279 120.145L300.213 119.248L300.279 120.145ZM284.833 115.215L284.257 115.906L284.259 115.908L284.833 115.215ZM277.161 100.672L276.265 100.758L276.265 100.759L277.161 100.672ZM277.052 99.5301L277.948 99.4442L277.864 98.5742L276.992 98.6321L277.052 99.5301ZM275.298 99.6466L275.239 98.7485L275.232 98.749L275.298 99.6466ZM256.906 103.456L256.609 102.607L256.608 102.607L256.906 103.456ZM255.816 103.839L255.518 102.99L254.694 103.279L254.958 104.112L255.816 103.839ZM256.164 104.936L255.306 105.209L255.307 105.21L256.164 104.936ZM252.163 125.301L251.473 124.723L251.47 124.726L252.163 125.301ZM249.132 128.273L248.568 127.572L248.567 127.572L249.132 128.273ZM237.162 132.977L237.096 132.079L237.162 132.977ZM223.671 129.493L224.165 128.741L224.164 128.74L223.671 129.493ZM222.706 128.862L223.199 128.109L222.471 127.633L221.97 128.345L222.706 128.862ZM222.044 129.804L222.78 130.323L222.78 130.322L222.044 129.804ZM220.537 132.047L221.291 132.538L221.295 132.533L220.537 132.047ZM213.014 147.357L212.165 147.06L212.163 147.064L213.014 147.357ZM212.63 148.47L211.779 148.177L211.487 149.023L212.332 149.32L212.63 148.47ZM213.747 148.862L214.046 148.013L214.045 148.013L213.747 148.862ZM220.33 152.581L220.905 151.888L220.903 151.887L220.33 152.581ZM228.018 167.188L227.121 167.269L227.121 167.27L228.018 167.188ZM223.096 182.943L223.784 183.523L223.787 183.519L223.096 182.943ZM275.193 98.2141L275.133 97.3161L275.127 97.3165L275.193 98.2141ZM278.353 98.0022L279.249 97.9146L279.164 97.0458L278.293 97.1042L278.353 98.0022ZM278.6 100.535L279.496 100.449L279.496 100.448L278.6 100.535ZM285.762 114.114L285.186 114.806L285.188 114.807L285.762 114.114ZM300.175 118.714L300.241 119.612L300.175 118.714ZM314.205 111.531L314.895 112.109L314.899 112.104L314.205 111.531ZM315.511 109.753L316.26 110.252L316.261 110.251L315.511 109.753ZM316.924 107.629L317.398 106.863L316.657 106.405L316.175 107.13L316.924 107.629ZM319.092 108.97L318.618 109.736L318.618 109.736L319.092 108.97ZM327.291 114.841L327.87 114.151L327.862 114.145L327.291 114.841ZM334.575 121.837L335.242 121.232L335.241 121.231L334.575 121.837ZM336.302 123.74L336.92 124.394L337.561 123.789L336.968 123.135L336.302 123.74ZM334.438 125.5L333.82 124.846L333.815 124.85L334.438 125.5ZM332.907 127.106L332.218 126.526L332.217 126.528L332.907 127.106ZM328.302 141.799L327.405 141.88L327.405 141.881L328.302 141.799ZM335.466 155.448L334.89 156.14L334.892 156.142L335.466 155.448ZM349.939 160.051L350.006 160.948L350.006 160.948L349.939 160.051ZM352.205 159.884L353.061 159.605L352.842 158.934L352.139 158.986L352.205 159.884ZM352.916 162.066L353.81 161.959L353.799 161.871L353.772 161.788L352.916 162.066ZM352.581 182.047L351.692 181.907L351.691 181.909L352.581 182.047ZM352.193 184.563L352.081 185.456L352.949 185.565L353.082 184.7L352.193 184.563ZM349.654 184.246L349.538 185.139L349.542 185.139L349.654 184.246ZM345.553 184.138L345.487 183.24L345.553 184.138ZM331.544 191.295L330.854 190.717L330.853 190.719L331.544 191.295ZM332.468 218.052L333.117 217.429L333.115 217.427L332.468 218.052ZM334.237 219.896L334.878 220.528L335.493 219.904L334.887 219.273L334.237 219.896ZM332.446 221.713L331.805 221.081L331.805 221.081L332.446 221.713ZM316.468 233.939L316.909 234.723L316.909 234.723L316.468 233.939ZM314.212 235.207L313.435 235.662L313.882 236.425L314.653 235.991L314.212 235.207ZM312.905 232.978L313.682 232.523L313.682 232.523L312.905 232.978ZM308.468 227.72L309.049 227.033L309.043 227.028L308.468 227.72ZM294.085 223.133L294.151 224.031L294.085 223.133ZM280.048 230.311L279.358 229.734L279.356 229.736L280.048 230.311ZM275.546 240.667L276.439 240.78L276.439 240.779L275.546 240.667ZM275.221 243.226L275.126 244.121L276.003 244.214L276.114 243.339L275.221 243.226ZM272.654 242.952L272.558 243.847L272.559 243.847L272.654 242.952ZM253.203 238.084L253.54 237.249L253.537 237.248L253.203 238.084ZM250.824 237.132L249.981 236.816L249.672 237.64L250.489 237.967L250.824 237.132ZM251.724 234.734L250.882 234.417L250.881 234.418L251.724 234.734ZM245.783 212.247L246.359 211.555L246.358 211.554L245.783 212.247ZM231.393 207.64L231.327 206.742L231.393 207.64ZM222.517 210.43L222.977 211.204L222.978 211.203L222.517 210.43ZM220.318 211.737L219.56 212.221L220.029 212.956L220.778 212.51L220.318 211.737ZM218.945 209.586L218.186 210.07L218.186 210.07L218.945 209.586ZM210.726 191.612L211.588 191.353L211.588 191.352L210.726 191.612ZM209.977 189.131L209.708 188.272L208.858 188.538L209.115 189.391L209.977 189.131ZM212.461 188.354L212.193 187.495L212.192 187.495L212.461 188.354ZM221.992 182.021L222.68 182.602L222.683 182.598L221.992 182.021ZM226.579 167.323L225.683 167.403L225.683 167.404L226.579 167.323ZM219.406 153.692L219.981 152.999L219.979 152.998L219.406 153.692ZM213.264 150.224L213.563 149.375L213.562 149.374L213.264 150.224ZM210.796 149.36L209.945 149.066L209.653 149.913L210.499 150.209L210.796 149.36ZM211.648 146.893L210.799 146.596L210.798 146.599L211.648 146.893ZM219.325 131.267L220.079 131.758L220.081 131.755L219.325 131.267ZM220.864 128.978L221.599 129.498L221.601 129.495L220.864 128.978ZM222.326 126.894L222.82 126.141L222.09 125.662L221.589 126.377L222.326 126.894ZM224.461 128.294L223.968 129.046L223.968 129.047L224.461 128.294ZM248.222 127.156L247.659 126.453L247.658 126.455L248.222 127.156ZM251.048 124.388L250.358 123.81L250.355 123.814L251.048 124.388ZM254.785 105.376L253.928 105.649L253.928 105.65L254.785 105.376ZM254.011 102.947L253.714 102.097L252.888 102.386L253.154 103.22L254.011 102.947ZM256.424 102.103L256.127 101.254L256.127 101.254L256.424 102.103ZM275.751 101.063L276.646 100.967L276.554 100.11L275.694 100.164L275.751 101.063ZM275.399 101.085L275.342 100.187L275.333 100.187L275.399 101.085ZM257.615 104.737L257.321 103.887L256.499 104.171L256.755 105.002L257.615 104.737ZM253.27 126.226L252.581 125.648L252.578 125.651L253.27 126.226ZM250.037 129.395L249.474 128.693L249.473 128.694L250.037 129.395ZM237.268 134.414L237.334 135.312L237.268 134.414ZM223.087 130.833L223.572 130.074L222.844 129.609L222.349 130.317L223.087 130.833ZM221.753 132.824L222.507 133.315L222.509 133.312L221.753 132.824ZM214.462 147.59L213.614 147.29L213.317 148.13L214.154 148.436L214.462 147.59ZM221.252 151.475L221.827 150.783L221.825 150.782L221.252 151.475ZM229.457 167.063L228.56 167.143L228.56 167.144L229.457 167.063ZM224.207 183.865L224.895 184.446L224.898 184.442L224.207 183.865ZM213.566 191.021L213.29 190.165L212.448 190.436L212.705 191.283L213.566 191.021ZM221.25 207.83L220.49 208.311L220.954 209.043L221.703 208.608L221.25 207.83ZM231.182 204.765L231.116 203.867L231.182 204.765ZM247.632 210.031L248.208 209.339L248.207 209.338L247.632 210.031ZM254.515 235.503L253.67 235.195L253.371 236.014L254.181 236.338L254.515 235.503ZM272.712 240.058L272.613 240.953L273.486 241.049L273.604 240.18L272.712 240.058ZM277.827 228.469L277.137 227.891L277.135 227.894L277.827 228.469ZM293.873 220.259L293.807 219.362L293.873 220.259ZM310.326 225.513L310.907 224.826L310.901 224.82L310.326 225.513ZM315.27 231.305L314.499 231.769L314.951 232.521L315.714 232.088L315.27 231.305ZM330.214 219.87L330.853 220.504L331.467 219.885L330.868 219.252L330.214 219.87ZM329.326 189.451L328.636 188.873L328.635 188.875L329.326 189.451ZM345.341 181.265L345.275 180.367L345.341 181.265ZM349.764 181.358L349.658 182.252L350.522 182.354L350.654 181.494L349.764 181.358ZM350.137 162.921L351.031 162.82L350.934 161.961L350.071 162.023L350.137 162.921ZM333.618 157.66L333.041 158.351L333.044 158.353L333.618 157.66ZM325.426 142.057L324.529 142.138L324.529 142.139L325.426 142.057ZM330.693 125.255L330.006 124.673L330.004 124.676L330.693 125.255ZM332.268 123.585L332.895 124.231L333.523 123.621L332.931 122.976L332.268 123.585ZM325.444 117.05L326.022 116.36L326.015 116.354L325.444 117.05ZM317.779 111.547L318.255 110.783L317.52 110.325L317.034 111.042L317.779 111.547ZM316.427 113.366L317.116 113.945L317.12 113.94L316.427 113.366ZM300.385 121.582L300.319 120.685L300.385 121.582ZM283.91 116.322L283.334 117.014L283.336 117.015L283.91 116.322ZM212.627 188.867L211.506 189.216L212.041 190.934L213.163 190.585L212.627 188.867ZM210.912 190.336L211.251 191.455L212.974 190.934L212.635 189.815L210.912 190.336ZM211.25 191.454C213.15 197.779 215.887 203.778 219.407 209.294L220.924 208.326C217.496 202.952 214.827 197.105 212.974 190.936L211.25 191.454ZM219.407 209.295L220.028 210.267L221.545 209.298L220.924 208.326L219.407 209.295ZM221.246 210.556L222.238 209.967L221.318 208.419L220.326 209.009L221.246 210.556ZM222.239 209.966C224.99 208.324 228.143 207.336 231.356 207.099L231.224 205.304C227.735 205.561 224.311 206.633 221.317 208.42L222.239 209.966ZM231.356 207.099C236.737 206.703 241.983 208.385 246.136 211.831L247.286 210.446C242.775 206.703 237.07 204.874 231.224 205.304L231.356 207.099ZM246.135 211.83C252.871 217.436 255.323 226.717 252.235 234.918L253.92 235.552C257.278 226.633 254.611 216.543 247.287 210.447L246.135 211.83ZM252.235 234.918L251.829 236L253.514 236.633L253.92 235.551L252.235 234.918ZM252.337 237.152L253.413 237.582L254.081 235.911L253.005 235.48L252.337 237.152ZM253.41 237.581C259.583 240.076 266.076 241.702 272.714 242.412L272.905 240.622C266.433 239.93 260.102 238.345 254.084 235.912L253.41 237.581ZM272.713 242.412L273.872 242.536L274.064 240.746L272.905 240.622L272.713 242.412ZM274.861 241.754L275.007 240.599L273.222 240.372L273.075 241.527L274.861 241.754ZM275.008 240.598C275.499 236.686 277.101 233.008 279.633 229.961L278.248 228.81C275.499 232.119 273.756 236.118 273.222 240.373L275.008 240.598ZM279.63 229.963C283.263 225.627 288.384 223.008 294.046 222.592L293.914 220.796C287.768 221.249 282.197 224.097 278.25 228.807L279.63 229.963ZM294.046 222.592C299.437 222.195 304.685 223.874 308.829 227.312L309.978 225.927C305.475 222.191 299.768 220.366 293.914 220.796L294.046 222.592ZM308.823 227.307C310.653 228.855 312.182 230.668 313.377 232.705L314.93 231.794C313.631 229.579 311.969 227.61 309.985 225.932L308.823 227.307ZM313.377 232.704L313.965 233.709L315.518 232.799L314.93 231.794L313.377 232.704ZM315.183 234.038L316.202 233.465L315.319 231.896L314.301 232.47L315.183 234.038ZM316.201 233.465C322.003 230.203 327.338 226.122 332.059 221.333L330.777 220.07C326.173 224.74 320.973 228.718 315.319 231.896L316.201 233.465ZM332.059 221.333L332.868 220.512L331.586 219.249L330.777 220.07L332.059 221.333ZM332.876 219.257L332.076 218.425L330.779 219.673L331.579 220.504L332.876 219.257ZM332.075 218.424C324.779 210.87 324.36 199.057 331.128 190.947L329.746 189.794C322.392 198.606 322.842 211.456 330.78 219.674L332.075 218.424ZM331.127 190.948C334.749 186.623 339.858 184.013 345.514 183.597L345.382 181.802C339.244 182.254 333.684 185.092 329.747 189.792L331.127 190.948ZM345.514 183.597C346.915 183.494 348.329 183.528 349.718 183.708L349.95 181.923C348.435 181.727 346.899 181.69 345.382 181.802L345.514 183.597ZM349.722 183.709L350.868 183.852L351.091 182.066L349.945 181.923L349.722 183.709ZM351.869 183.097L352.045 181.959L350.266 181.684L350.09 182.822L351.869 183.097ZM352.045 181.961C353.062 175.478 353.195 168.9 352.438 162.404L350.65 162.612C351.388 168.945 351.258 175.359 350.266 181.682L352.045 181.961ZM352.4 162.229L352.039 161.121L350.328 161.678L350.689 162.786L352.4 162.229ZM351.117 160.502L349.981 160.585L350.113 162.38L351.25 162.297L351.117 160.502ZM349.981 160.585C344.555 160.985 339.28 159.302 335.115 155.857L333.968 157.244C338.492 160.986 344.226 162.814 350.113 162.38L349.981 160.585ZM335.118 155.859C330.872 152.319 328.259 147.345 327.762 141.845L325.969 142.007C326.51 147.984 329.354 153.396 333.965 157.242L335.118 155.859ZM327.762 141.845C327.264 136.343 328.943 130.987 332.492 126.756L331.113 125.599C327.256 130.197 325.428 136.028 325.969 142.007L327.762 141.845ZM332.491 126.757C332.988 126.166 333.517 125.63 334.069 125.101L332.822 123.803C332.25 124.352 331.669 124.937 331.114 125.598L332.491 126.757ZM334.064 125.105L334.902 124.312L333.665 123.005L332.827 123.798L334.064 125.105ZM334.95 123.054L334.173 122.197L332.839 123.406L333.617 124.263L334.95 123.054ZM334.172 122.195C331.933 119.737 329.508 117.402 326.952 115.257L325.795 116.636C328.288 118.728 330.655 121.007 332.841 123.407L334.172 122.195ZM326.944 115.251C324.298 113.079 321.631 111.173 318.802 109.424L317.856 110.955C320.615 112.662 323.217 114.521 325.802 116.643L326.944 115.251ZM318.803 109.424L317.826 108.82L316.879 110.35L317.855 110.955L318.803 109.424ZM316.603 109.086L315.964 110.047L317.463 111.044L318.101 110.084L316.603 109.086ZM315.964 110.046C315.546 110.673 315.1 111.293 314.618 111.876L316.005 113.023C316.538 112.379 317.022 111.705 317.462 111.045L315.964 110.046ZM314.622 111.871C310.981 116.211 305.869 118.832 300.213 119.248L300.345 121.043C306.486 120.591 312.048 117.74 316.001 113.028L314.622 111.871ZM300.213 119.248C294.819 119.645 289.565 117.965 285.407 114.521L284.259 115.908C288.775 119.648 294.488 121.474 300.345 121.043L300.213 119.248ZM285.41 114.523C281.201 111.015 278.587 106.066 278.057 100.586L276.265 100.759C276.84 106.709 279.683 112.093 284.257 115.906L285.41 114.523ZM278.057 100.586L277.948 99.4442L276.156 99.616L276.265 100.758L278.057 100.586ZM276.992 98.6321L275.239 98.7485L275.358 100.545L277.111 100.428L276.992 98.6321ZM275.232 98.749C268.858 99.2182 262.593 100.517 256.609 102.607L257.203 104.306C263.036 102.268 269.146 101.002 275.364 100.544L275.232 98.749ZM256.608 102.607L255.518 102.99L256.114 104.688L257.204 104.306L256.608 102.607ZM254.958 104.112L255.306 105.209L257.022 104.664L256.674 103.567L254.958 104.112ZM255.307 105.21C257.471 111.985 256.044 119.276 251.473 124.723L252.852 125.88C257.821 119.959 259.373 112.024 257.022 104.662L255.307 105.21ZM251.47 124.726C250.616 125.756 249.641 126.709 248.568 127.572L249.696 128.975C250.858 128.04 251.92 127.003 252.855 125.876L251.47 124.726ZM248.567 127.572C245.293 130.209 241.328 131.768 237.096 132.079L237.228 133.875C241.822 133.536 246.134 131.842 249.696 128.974L248.567 127.572ZM237.096 132.079C232.554 132.414 227.957 131.227 224.165 128.741L223.178 130.246C227.303 132.951 232.293 134.238 237.228 133.875L237.096 132.079ZM224.164 128.74L223.199 128.109L222.214 129.616L223.179 130.247L224.164 128.74ZM221.97 128.345L221.308 129.286L222.78 130.322L223.442 129.38L221.97 128.345ZM221.309 129.285C220.78 130.035 220.269 130.798 219.78 131.561L221.295 132.533C221.772 131.79 222.268 131.048 222.78 130.323L221.309 129.285ZM219.783 131.556C216.625 136.409 214.064 141.623 212.165 147.06L213.864 147.654C215.716 142.354 218.212 137.269 221.291 132.538L219.783 131.556ZM212.163 147.064L211.779 148.177L213.481 148.764L213.865 147.651L212.163 147.064ZM212.332 149.32L213.449 149.711L214.045 148.013L212.928 147.621L212.332 149.32ZM213.448 149.711C215.743 150.52 217.87 151.716 219.757 153.275L220.903 151.887C218.852 150.192 216.539 148.892 214.046 148.013L213.448 149.711ZM219.755 153.273C224.01 156.805 226.627 161.773 227.121 167.269L228.914 167.108C228.377 161.133 225.527 155.725 220.905 151.888L219.755 153.273ZM227.121 167.27C227.621 172.768 225.941 178.129 222.405 182.366L223.787 183.519C227.628 178.917 229.457 173.083 228.914 167.107L227.121 167.27ZM222.408 182.363C219.824 185.427 216.445 187.68 212.628 188.866L213.162 190.585C217.31 189.296 220.981 186.848 223.784 183.523L222.408 182.363ZM275.253 99.1121L278.413 98.9002L278.293 97.1042L275.133 97.3161L275.253 99.1121ZM277.457 98.0898L277.705 100.623L279.496 100.448L279.249 97.9146L277.457 98.0898ZM277.705 100.621C278.24 106.193 280.9 111.232 285.186 114.806L286.338 113.423C282.417 110.154 279.987 105.55 279.496 100.449L277.705 100.621ZM285.188 114.807C289.414 118.308 294.762 120.015 300.241 119.612L300.109 117.816C295.093 118.186 290.204 116.625 286.336 113.421L285.188 114.807ZM300.241 119.612C305.984 119.189 311.191 116.525 314.895 112.109L313.516 110.952C310.125 114.996 305.368 117.429 300.109 117.816L300.241 119.612ZM314.899 112.104C315.392 111.507 315.847 110.872 316.26 110.252L314.762 109.254C314.371 109.841 313.953 110.422 313.511 110.957L314.899 112.104ZM316.261 110.251L317.674 108.127L316.175 107.13L314.762 109.254L316.261 110.251ZM316.451 108.394L318.618 109.736L319.566 108.205L317.398 106.863L316.451 108.394ZM318.618 109.736C321.448 111.487 324.098 113.382 326.72 115.536L327.862 114.145C325.179 111.941 322.464 109.999 319.566 108.205L318.618 109.736ZM326.713 115.53C329.25 117.658 331.668 119.98 333.91 122.442L335.241 121.231C332.945 118.708 330.469 116.331 327.87 114.151L326.713 115.53ZM333.909 122.441L335.635 124.345L336.968 123.135L335.242 121.232L333.909 122.441ZM335.684 123.085L333.82 124.846L335.055 126.155L336.92 124.394L335.684 123.085ZM333.815 124.85C333.287 125.356 332.74 125.906 332.218 126.526L333.595 127.685C334.058 127.136 334.553 126.636 335.06 126.15L333.815 124.85ZM332.217 126.528C328.61 130.828 326.901 136.285 327.405 141.88L329.198 141.719C328.736 136.6 330.297 131.617 333.596 127.684L332.217 126.528ZM327.405 141.881C327.911 147.472 330.571 152.539 334.89 156.14L336.042 154.757C332.09 151.462 329.661 146.834 329.198 141.718L327.405 141.881ZM334.892 156.142C339.126 159.646 344.497 161.354 350.006 160.948L349.873 159.153C344.825 159.525 339.914 157.961 336.04 154.755L334.892 156.142ZM350.006 160.948L352.271 160.781L352.139 158.986L349.873 159.153L350.006 160.948ZM351.349 160.163L352.06 162.345L353.772 161.788L353.061 159.605L351.349 160.163ZM352.023 162.174C352.835 168.912 352.703 175.457 351.692 181.907L353.47 182.186C354.507 175.572 354.642 168.86 353.81 161.959L352.023 162.174ZM351.691 181.909L351.303 184.426L353.082 184.7L353.47 182.184L351.691 181.909ZM352.304 183.67L349.765 183.353L349.542 185.139L352.081 185.456L352.304 183.67ZM349.769 183.354C348.365 183.172 346.928 183.134 345.487 183.24L345.619 185.035C346.941 184.938 348.256 184.973 349.538 185.139L349.769 183.354ZM345.487 183.24C339.738 183.663 334.538 186.319 330.854 190.717L332.234 191.873C335.603 187.85 340.352 185.423 345.619 185.035L345.487 183.24ZM330.853 190.719C323.976 198.959 324.385 210.983 331.821 218.678L333.115 217.427C326.323 210.398 325.943 199.412 332.235 191.872L330.853 190.719ZM331.818 218.675L333.588 220.519L334.887 219.273L333.117 217.429L331.818 218.675ZM333.596 219.264L331.805 221.081L333.087 222.345L334.878 220.528L333.596 219.264ZM331.805 221.081C327.107 225.848 321.798 229.908 316.027 233.154L316.909 234.723C322.828 231.394 328.272 227.23 333.087 222.345L331.805 221.081ZM316.027 233.154L313.771 234.422L314.653 235.991L316.909 234.723L316.027 233.154ZM314.988 234.752L313.682 232.523L312.129 233.434L313.435 235.662L314.988 234.752ZM313.682 232.523C312.467 230.452 310.907 228.605 309.049 227.033L307.887 228.407C309.592 229.85 311.019 231.541 312.129 233.434L313.682 232.523ZM309.043 227.028C304.835 223.538 299.494 221.833 294.019 222.236L294.151 224.031C299.164 223.662 304.046 225.221 307.893 228.413L309.043 227.028ZM294.019 222.236C288.262 222.66 283.051 225.322 279.358 229.734L280.738 230.889C284.117 226.853 288.877 224.419 294.151 224.031L294.019 222.236ZM279.356 229.736C276.782 232.836 275.153 236.579 274.653 240.554L276.439 240.779C276.896 237.147 278.384 233.724 280.74 230.887L279.356 229.736ZM274.653 240.553L274.328 243.112L276.114 243.339L276.439 240.78L274.653 240.553ZM275.316 242.331L272.75 242.057L272.559 243.847L275.126 244.121L275.316 242.331ZM272.75 242.057C266.149 241.352 259.686 239.733 253.54 237.249L252.866 238.918C259.167 241.464 265.791 243.124 272.558 243.847L272.75 242.057ZM253.537 237.248L251.158 236.296L250.489 237.967L252.868 238.92L253.537 237.248ZM251.666 237.448L252.566 235.05L250.881 234.418L249.981 236.816L251.666 237.448ZM252.566 235.051C255.709 226.703 253.215 217.261 246.359 211.555L245.207 212.939C251.474 218.154 253.754 226.786 250.882 234.417L252.566 235.051ZM246.358 211.554C242.134 208.05 236.795 206.34 231.327 206.742L231.459 208.537C236.462 208.169 241.342 209.732 245.208 212.94L246.358 211.554ZM231.327 206.742C228.057 206.983 224.852 207.992 222.057 209.657L222.978 211.203C225.531 209.682 228.466 208.758 231.459 208.537L231.327 206.742ZM222.058 209.657L219.859 210.963L220.778 212.51L222.977 211.204L222.058 209.657ZM221.077 211.252L219.704 209.101L218.186 210.07L219.56 212.221L221.077 211.252ZM219.704 209.102C216.212 203.627 213.481 197.657 211.588 191.353L209.864 191.871C211.804 198.332 214.605 204.454 218.186 210.07L219.704 209.102ZM211.588 191.352L210.838 188.871L209.115 189.391L209.864 191.872L211.588 191.352ZM210.245 189.99L212.729 189.213L212.192 187.495L209.708 188.272L210.245 189.99ZM212.728 189.214C216.603 188.009 220.044 185.722 222.68 182.602L221.305 181.44C218.888 184.301 215.739 186.393 212.193 187.495L212.728 189.214ZM222.683 182.598C226.278 178.29 227.984 172.831 227.476 167.241L225.683 167.404C226.148 172.517 224.59 177.503 221.301 181.444L222.683 182.598ZM227.476 167.243C226.975 161.655 224.309 156.593 219.981 152.999L218.831 154.384C222.792 157.673 225.225 162.295 225.683 167.403L227.476 167.243ZM219.979 152.998C218.071 151.422 215.911 150.201 213.563 149.375L212.966 151.073C215.115 151.829 217.089 152.945 218.833 154.386L219.979 152.998ZM213.562 149.374L211.093 148.51L210.499 150.209L212.967 151.073L213.562 149.374ZM211.647 149.654L212.499 147.187L210.798 146.599L209.945 149.066L211.647 149.654ZM212.498 147.19C214.391 141.773 216.941 136.581 220.079 131.758L218.57 130.776C215.354 135.72 212.739 141.042 210.799 146.596L212.498 147.19ZM220.081 131.755C220.568 131 221.074 130.239 221.599 129.498L220.129 128.459C219.585 129.227 219.065 130.01 218.568 130.779L220.081 131.755ZM221.601 129.495L223.063 127.41L221.589 126.377L220.127 128.462L221.601 129.495ZM221.832 127.646L223.968 129.046L224.955 127.541L222.82 126.141L221.832 127.646ZM223.968 129.047C231.427 133.935 241.866 133.428 248.787 127.857L247.658 126.455C241.347 131.535 231.763 132.003 224.954 127.541L223.968 129.047ZM248.785 127.858C249.883 126.978 250.878 126.004 251.74 124.962L250.355 123.814C249.573 124.757 248.666 125.646 247.659 126.453L248.785 127.858ZM251.737 124.966C256.387 119.421 257.846 111.995 255.643 105.102L253.928 105.65C255.943 111.955 254.611 118.738 250.358 123.81L251.737 124.966ZM255.643 105.102L254.869 102.674L253.154 103.22L253.928 105.649L255.643 105.102ZM254.308 103.797L256.721 102.953L256.127 101.254L253.714 102.097L254.308 103.797ZM256.721 102.953C262.679 100.871 268.913 99.5788 275.259 99.1117L275.127 97.3165C268.625 97.7951 262.236 99.1188 256.127 101.254L256.721 102.953ZM275.694 100.164L275.342 100.187L275.457 101.983L275.808 101.961L275.694 100.164ZM275.333 100.187C269.17 100.641 263.113 101.886 257.321 103.887L257.909 105.588C263.553 103.639 269.456 102.425 275.466 101.983L275.333 100.187ZM256.755 105.002C258.968 112.185 257.415 119.884 252.581 125.648L253.96 126.804C259.187 120.573 260.868 112.238 258.475 104.472L256.755 105.002ZM252.578 125.651C251.675 126.738 250.631 127.765 249.474 128.693L250.6 130.097C251.849 129.095 252.981 127.983 253.963 126.801L252.578 125.651ZM249.473 128.694C245.97 131.514 241.728 133.183 237.202 133.516L237.334 135.312C242.222 134.952 246.812 133.147 250.602 130.096L249.473 128.694ZM237.202 133.516C232.422 133.868 227.59 132.646 223.572 130.074L222.602 131.591C226.949 134.373 232.168 135.692 237.334 135.312L237.202 133.516ZM222.349 130.317C221.881 130.986 221.43 131.664 220.996 132.337L222.509 133.312C222.933 132.654 223.372 131.996 223.824 131.348L222.349 130.317ZM220.998 132.333C217.952 137.016 215.467 142.045 213.614 147.29L215.311 147.89C217.117 142.78 219.537 137.879 222.507 133.315L220.998 132.333ZM214.154 148.436C216.54 149.305 218.732 150.559 220.678 152.169L221.825 150.782C219.72 149.041 217.348 147.684 214.77 146.744L214.154 148.436ZM220.677 152.168C225.235 155.952 228.031 161.267 228.56 167.143L230.353 166.982C229.781 160.627 226.752 154.872 221.827 150.783L220.677 152.168ZM228.56 167.144C229.095 173.019 227.304 178.75 223.516 183.288L224.898 184.442C228.991 179.538 230.931 173.333 230.353 166.981L228.56 167.144ZM223.52 183.284C220.795 186.508 217.264 188.883 213.29 190.165L213.842 191.878C218.14 190.491 221.955 187.924 224.895 184.446L223.52 183.284ZM212.705 191.283C214.542 197.323 217.159 203.048 220.49 208.311L222.011 207.348C218.768 202.224 216.217 196.647 214.427 190.759L212.705 191.283ZM221.703 208.608C224.591 206.928 227.886 205.91 231.248 205.662L231.116 203.867C227.483 204.134 223.923 205.234 220.798 207.052L221.703 208.608ZM231.248 205.662C237 205.239 242.612 207.036 247.058 210.724L248.207 209.338C243.403 205.354 237.332 203.409 231.116 203.867L231.248 205.662ZM247.056 210.723C254.205 216.672 256.843 226.478 253.67 235.195L255.361 235.811C258.794 226.381 255.941 215.774 248.208 209.339L247.056 210.723ZM254.181 236.338C260.087 238.701 266.285 240.254 272.613 240.953L272.811 239.164C266.645 238.482 260.605 236.97 254.85 234.667L254.181 236.338ZM273.604 240.18C274.161 236.092 275.858 232.246 278.519 229.044L277.135 227.894C274.261 231.352 272.423 235.512 271.821 239.937L273.604 240.18ZM278.517 229.047C282.406 224.403 287.879 221.603 293.939 221.157L293.807 219.362C287.263 219.843 281.34 222.873 277.137 227.891L278.517 229.047ZM293.939 221.157C299.702 220.733 305.316 222.526 309.751 226.206L310.901 224.82C306.106 220.842 300.033 218.903 293.807 219.362L293.939 221.157ZM309.745 226.2C311.647 227.808 313.242 229.679 314.499 231.769L316.041 230.842C314.682 228.58 312.957 226.559 310.907 224.826L309.745 226.2ZM315.714 232.088C321.24 228.954 326.331 225.059 330.853 220.504L329.575 219.236C325.168 223.676 320.208 227.47 314.826 230.523L315.714 232.088ZM330.868 219.252C323.217 211.161 322.832 198.641 330.017 190.028L328.635 188.875C320.869 198.184 321.279 211.731 329.56 220.488L330.868 219.252ZM330.016 190.029C333.892 185.4 339.353 182.608 345.407 182.162L345.275 180.367C338.739 180.848 332.826 183.869 328.636 188.873L330.016 190.029ZM345.407 182.162C346.84 182.057 348.27 182.087 349.658 182.252L349.87 180.464C348.365 180.285 346.82 180.253 345.275 180.367L345.407 182.162ZM350.654 181.494C351.603 175.299 351.731 169.02 351.031 162.82L349.243 163.022C349.924 169.063 349.799 175.182 348.875 181.222L350.654 181.494ZM350.071 162.023C344.28 162.445 338.643 160.651 334.192 156.966L333.044 158.353C337.855 162.335 343.951 164.274 350.202 163.819L350.071 162.023ZM334.194 156.968C329.646 153.175 326.856 147.856 326.322 141.976L324.529 142.139C325.106 148.494 328.127 154.252 333.041 158.351L334.194 156.968ZM326.322 141.976C325.789 136.09 327.586 130.36 331.383 125.833L330.004 124.676C325.899 129.57 323.953 135.775 324.529 142.138L326.322 141.976ZM331.381 125.836C331.864 125.264 332.371 124.739 332.895 124.231L331.641 122.939C331.09 123.474 330.539 124.043 330.006 124.673L331.381 125.836ZM332.931 122.976C330.771 120.622 328.447 118.394 326.022 116.36L324.865 117.739C327.229 119.722 329.497 121.895 331.605 124.193L332.931 122.976ZM326.015 116.354C323.508 114.298 320.964 112.47 318.255 110.783L317.304 112.311C319.945 113.955 322.425 115.737 324.873 117.745L326.015 116.354ZM317.034 111.042C316.628 111.641 316.195 112.235 315.733 112.793L317.12 113.94C317.627 113.327 318.095 112.685 318.524 112.052L317.034 111.042ZM315.737 112.788C311.834 117.441 306.364 120.24 300.319 120.685L300.451 122.48C306.981 121.999 312.9 118.97 317.116 113.945L315.737 112.788ZM300.319 120.685C294.554 121.109 288.933 119.315 284.484 115.629L283.336 117.015C288.143 120.998 294.223 122.938 300.451 122.48L300.319 120.685ZM284.486 115.631C280.039 111.925 277.263 106.728 276.646 100.967L274.856 101.158C275.523 107.383 278.526 113.008 283.334 117.014L284.486 115.631Z" fill="#88AA00" mask="url(#path-30-inside-3)"/>
</g>
<path d="M248.21 172.59C246.872 154.409 260.573 138.579 278.815 137.236C297.058 135.893 312.929 149.546 314.267 167.727C315.605 185.909 301.905 201.739 283.662 203.081C265.42 204.424 249.549 190.771 248.21 172.59Z" fill="#88AA00" stroke="black"/>
<path d="M278.673 135.304C297.956 133.884 314.791 148.366 316.206 167.585C317.621 186.806 303.087 203.598 283.805 205.017C264.523 206.436 247.685 191.954 246.27 172.733C244.857 153.514 259.393 136.723 278.673 135.304ZM283.593 202.145C301.286 200.843 314.624 185.434 313.325 167.797C312.027 150.162 296.578 136.873 278.884 138.175C261.191 139.478 247.853 154.886 249.151 172.521C250.449 190.158 265.9 203.448 283.593 202.145Z" fill="#171A21"/>
<defs>
<filter id="filter0_d" x="195.836" y="87.8258" width="169.441" height="167.921" filterUnits="userSpaceOnUse" color-interpolation-filters="sRGB">
<feFlood flood-opacity="0" result="BackgroundImageFix"/>
<feColorMatrix in="SourceAlpha" type="matrix" values="0 0 0 0 0 0 0 0 0 0 0 0 0 0 0 0 0 0 127 0"/>
<feOffset dy="2"/>
<feGaussianBlur stdDeviation="1"/>
<feColorMatrix type="matrix" values="0 0 0 0 0.533333 0 0 0 0 0.666667 0 0 0 0 0 0 0 0 0.25 0"/>
<feBlend mode="normal" in2="BackgroundImageFix" result="effect1_dropShadow"/>
<feBlend mode="normal" in="SourceGraphic" in2="effect1_dropShadow" result="shape"/>
</filter>
</defs>
</svg>
