<svg width="378" height="255" viewBox="0 0 378 255" fill="none" xmlns="http://www.w3.org/2000/svg">
<path d="M376 0H2C0.89543 0 0 0.89543 0 2V253C0 254.105 0.89543 255 2 255H376C377.105 255 378 254.105 378 253V2C378 0.89543 377.105 0 376 0Z" fill="#171A21"/>
<path d="M314.5 33.5H37.5V200.5H314.5V33.5Z" stroke="#2C5876" stroke-width="3"/>
<path d="M28 220.5V25H322.5V220.5H28Z" stroke="#2C5876" stroke-width="3"/>
<g filter="url(#filter0_d)">
<path d="M54 173H297" stroke="#2C5876" stroke-width="2"/>
<path d="M298 74V174" stroke="#2C5876" stroke-width="2"/>
<path d="M245 109V174" stroke="#2C5876" stroke-width="2"/>
<path d="M146 124C146 143.526 146 154.474 146 174" stroke="#2C5876" stroke-width="2"/>
<path d="M196 134C196 149.621 196 158.379 196 174" stroke="#2C5876" stroke-width="2"/>
<path d="M109 149V174" stroke="#2C5876" stroke-width="2"/>
<path d="M53 173.5L108.5 149L145.5 124L196 134L245 109L298 74.5" stroke="#2C5876" stroke-width="2"/>
<path d="M108 154C110.761 154 113 151.761 113 149C113 146.239 110.761 144 108 144C105.239 144 103 146.239 103 149C103 151.761 105.239 154 108 154Z" fill="#2C5876"/>
<path d="M56 177C58.7614 177 61 174.761 61 172C61 169.239 58.7614 167 56 167C53.2386 167 51 169.239 51 172C51 174.761 53.2386 177 56 177Z" fill="#2C5876"/>
<path d="M146 130C148.761 130 151 127.761 151 125C151 122.239 148.761 120 146 120C143.239 120 141 122.239 141 125C141 127.761 143.239 130 146 130Z" fill="#2C5876"/>
<path d="M196 139C198.761 139 201 136.761 201 134C201 131.239 198.761 129 196 129C193.239 129 191 131.239 191 134C191 136.761 193.239 139 196 139Z" fill="#2C5876"/>
<path d="M244 114C246.761 114 249 111.761 249 109C249 106.239 246.761 104 244 104C241.239 104 239 106.239 239 109C239 111.761 241.239 114 244 114Z" fill="#2C5876"/>
<path d="M297 79C299.761 79 302 76.7614 302 74C302 71.2386 299.761 69 297 69C294.239 69 292 71.2386 292 74C292 76.7614 294.239 79 297 79Z" fill="#2C5876"/>
</g>
<g filter="url(#filter1_d)">
<path d="M98.5 100C113.136 100 125 88.1355 125 73.5C125 58.8645 113.136 47 98.5 47C83.8645 47 72 58.8645 72 73.5C72 88.1355 83.8645 100 98.5 100Z" stroke="#2C5876" stroke-width="2"/>
</g>
<path d="M98 73L105 98.5" stroke="#2C5876" stroke-width="2"/>
<path d="M98 73.5L106.5 49" stroke="#2C5876" stroke-width="2"/>
<path d="M98 73L124.5 78" stroke="#2C5876" stroke-width="2"/>
<path d="M99 72L82 94" stroke="#2C5876" stroke-width="2"/>
<path d="M163.5 85.5H206.5" stroke="#2C5876"/>
<path d="M163 72H214" stroke="#2C5876"/>
<path d="M163 58H221" stroke="#2C5876"/>
<g filter="url(#filter2_d)">
<path d="M295.513 180.007C311.174 165.226 311.877 140.56 297.083 124.914C282.29 109.268 257.602 108.567 241.942 123.348C226.281 138.129 225.578 162.795 240.372 178.441C255.165 194.088 279.853 194.789 295.513 180.007Z" fill="#171A21" stroke="#88AA00" stroke-width="2"/>
<path d="M295.265 126.63C309.11 141.273 308.452 164.357 293.796 178.191C279.139 192.024 256.034 191.368 242.19 176.725C228.345 162.083 229.003 138.998 243.659 125.165C258.316 111.331 281.42 111.987 295.265 126.63Z" stroke="#88AA00" stroke-width="3"/>
</g>
<g filter="url(#filter3_d)">
<path d="M298.452 175.651L291.616 182.103L306.145 197.47L312.981 191.017L298.452 175.651Z" fill="#88AA00"/>
<path d="M298.412 177.064L293.03 182.143L306.185 196.057L311.567 190.977L298.412 177.064Z" stroke="#88AA00" stroke-width="2"/>
</g>
<g filter="url(#filter4_d)">
<path d="M349.52 245.791L303.696 197.011L312.491 188.216L358.793 236.982L349.52 245.791Z" fill="#88AA00" stroke="black"/>
<path d="M303 197L312.5 187.5L359.5 237L349.5 246.5L303 197Z" stroke="#88AA00" stroke-width="3"/>
</g>
<path d="M250.646 152.646L269.646 133.646" stroke="#88AA00"/>
<path d="M269.646 167.646L288.646 148.646" stroke="#88AA00"/>
<path d="M254.646 165.646L284.646 135.646" stroke="#88AA00"/>
<defs>
<filter id="filter0_d" x="49" y="69" width="255" height="112" filterUnits="userSpaceOnUse" color-interpolation-filters="sRGB">
<feFlood flood-opacity="0" result="BackgroundImageFix"/>
<feColorMatrix in="SourceAlpha" type="matrix" values="0 0 0 0 0 0 0 0 0 0 0 0 0 0 0 0 0 0 127 0"/>
<feOffset dy="2"/>
<feGaussianBlur stdDeviation="1"/>
<feColorMatrix type="matrix" values="0 0 0 0 0 0 0 0 0 0 0 0 0 0 0 0 0 0 0.25 0"/>
<feBlend mode="normal" in2="BackgroundImageFix" result="effect1_dropShadow"/>
<feBlend mode="normal" in="SourceGraphic" in2="effect1_dropShadow" result="shape"/>
</filter>
<filter id="filter1_d" x="69" y="46" width="59" height="59" filterUnits="userSpaceOnUse" color-interpolation-filters="sRGB">
<feFlood flood-opacity="0" result="BackgroundImageFix"/>
<feColorMatrix in="SourceAlpha" type="matrix" values="0 0 0 0 0 0 0 0 0 0 0 0 0 0 0 0 0 0 127 0"/>
<feOffset dy="2"/>
<feGaussianBlur stdDeviation="1"/>
<feColorMatrix type="matrix" values="0 0 0 0 0.172549 0 0 0 0 0.345098 0 0 0 0 0.462745 0 0 0 0.25 0"/>
<feBlend mode="normal" in2="BackgroundImageFix" result="effect1_dropShadow"/>
<feBlend mode="normal" in="SourceGraphic" in2="effect1_dropShadow" result="shape"/>
</filter>
<filter id="filter2_d" x="225.72" y="111.705" width="86.0148" height="85.9446" filterUnits="userSpaceOnUse" color-interpolation-filters="sRGB">
<feFlood flood-opacity="0" result="BackgroundImageFix"/>
<feColorMatrix in="SourceAlpha" type="matrix" values="0 0 0 0 0 0 0 0 0 0 0 0 0 0 0 0 0 0 127 0"/>
<feOffset dy="3"/>
<feGaussianBlur stdDeviation="1.5"/>
<feColorMatrix type="matrix" values="0 0 0 0 0.533333 0 0 0 0 0.666667 0 0 0 0 0 0 0 0 0.25 0"/>
<feBlend mode="normal" in2="BackgroundImageFix" result="effect1_dropShadow"/>
<feBlend mode="normal" in="SourceGraphic" in2="effect1_dropShadow" result="shape"/>
</filter>
<filter id="filter3_d" x="289.616" y="175.651" width="25.3651" height="25.8187" filterUnits="userSpaceOnUse" color-interpolation-filters="sRGB">
<feFlood flood-opacity="0" result="BackgroundImageFix"/>
<feColorMatrix in="SourceAlpha" type="matrix" values="0 0 0 0 0 0 0 0 0 0 0 0 0 0 0 0 0 0 127 0"/>
<feOffset dy="2"/>
<feGaussianBlur stdDeviation="1"/>
<feColorMatrix type="matrix" values="0 0 0 0 0.533333 0 0 0 0 0.666667 0 0 0 0 0 0 0 0 0.25 0"/>
<feBlend mode="normal" in2="BackgroundImageFix" result="effect1_dropShadow"/>
<feBlend mode="normal" in="SourceGraphic" in2="effect1_dropShadow" result="shape"/>
</filter>
<filter id="filter4_d" x="298.911" y="185.351" width="64.709" height="67.2756" filterUnits="userSpaceOnUse" color-interpolation-filters="sRGB">
<feFlood flood-opacity="0" result="BackgroundImageFix"/>
<feColorMatrix in="SourceAlpha" type="matrix" values="0 0 0 0 0 0 0 0 0 0 0 0 0 0 0 0 0 0 127 0"/>
<feOffset dy="2"/>
<feGaussianBlur stdDeviation="1"/>
<feColorMatrix type="matrix" values="0 0 0 0 0.533333 0 0 0 0 0.666667 0 0 0 0 0 0 0 0 0.25 0"/>
<feBlend mode="normal" in2="BackgroundImageFix" result="effect1_dropShadow"/>
<feBlend mode="normal" in="SourceGraphic" in2="effect1_dropShadow" result="shape"/>
</filter>
</defs>
</svg>
